900-italicVF.ufo
<glyph name="quotedbl" format="2">
  <advance width="517"/>
  <unicode hex="0022"/>
  <outline>
    <contour>
      <point x="262" y="700" type="line"/>
      <point x="461" y="699" type="line"/>
      <point x="250" y="371" type="line"/>
      <point x="121" y="370" type="line"/>
    </contour>
    <contour>
      <point x="479" y="700" type="line"/>
      <point x="678" y="699" type="line"/>
      <point x="466" y="371" type="line"/>
      <point x="338" y="370" type="line"/>
    </contour>
  </outline>
</glyph>
<glyph name="dollar" format="2">
  <advance width="608"/>
  <unicode hex="0024"/>
  <outline>
    <contour>
      <point x="464" y="818" type="line"/>
      <point x="616" y="818" type="line"/>
      <point x="542" y="618" type="line"/>
      <point x="410" y="618" type="line"/>
    </contour>
    <contour>
      <point x="243" y="70" type="line"/>
      <point x="374" y="70" type="line"/>
      <point x="325" y="-112" type="line"/>
      <point x="175" y="-112" type="line"/>
    </contour>
    <contour>
      <point x="547" y="475" type="line"/>
      <point x="534" y="512"/>
      <point x="519" y="558"/>
      <point x="472" y="558" type="curve" smooth="yes"/>
      <point x="445" y="558"/>
      <point x="408" y="537"/>
      <point x="397" y="512" type="curve" smooth="yes"/>
      <point x="373" y="455"/>
      <point x="477" y="438"/>
      <point x="510" y="424" type="curve" smooth="yes"/>
      <point x="602" y="384"/>
      <point x="647" y="296"/>
      <point x="620" y="199" type="curve" smooth="yes"/>
      <point x="580" y="52"/>
      <point x="420" y="-12"/>
      <point x="280" y="-10" type="curve" smooth="yes"/>
      <point x="165" y="-8"/>
      <point x="73" y="55"/>
      <point x="31" y="161" type="curve"/>
      <point x="197" y="266" type="line"/>
      <point x="220" y="212"/>
      <point x="249" y="158"/>
      <point x="316" y="159" type="curve" smooth="yes"/>
      <point x="345" y="159"/>
      <point x="387" y="171"/>
      <point x="398" y="203" type="curve" smooth="yes"/>
      <point x="414" y="249"/>
      <point x="335" y="268"/>
      <point x="306" y="281" type="curve" smooth="yes"/>
      <point x="216" y="324"/>
      <point x="152" y="408"/>
      <point x="180" y="511" type="curve" smooth="yes"/>
      <point x="215" y="641"/>
      <point x="366" y="709"/>
      <point x="491" y="710" type="curve" smooth="yes"/>
      <point x="601" y="711"/>
      <point x="677" y="660"/>
      <point x="723" y="561" type="curve"/>
    </contour>
  </outline>
</glyph>
<glyph name="parenleft" format="2">
  <advance width="338"/>
  <unicode hex="0028"/>
  <outline>
    <contour>
      <point x="366" y="779" type="curve"/>
      <point x="540" y="778" type="line"/>
      <point x="438" y="625"/>
      <point x="340" y="467"/>
      <point x="284" y="290" type="curve" smooth="yes"/>
      <point x="233" y="132"/>
      <point x="216" y="-36"/>
      <point x="243" y="-201" type="curve"/>
      <point x="79" y="-201" type="line"/>
      <point x="46" y="-37"/>
      <point x="57" y="130"/>
      <point x="104" y="290" type="curve" smooth="yes"/>
      <point x="157" y="469"/>
      <point x="251" y="633"/>
    </contour>
  </outline>
</glyph>
<glyph name="hyphen" format="2">
  <advance width="216"/>
  <unicode hex="002D"/>
  <outline>
    <contour>
      <point x="-1" y="155" type="line"/>
      <point x="57" y="320" type="line"/>
      <point x="271" y="320" type="line"/>
      <point x="213" y="155" type="line"/>
    </contour>
  </outline>
</glyph>
<glyph name="zero" format="2">
  <advance width="658"/>
  <unicode hex="0030"/>
  <outline>
    <contour>
      <point x="303" y="350" type="curve" smooth="yes"/>
      <point x="287" y="307"/>
      <point x="242" y="176"/>
      <point x="322" y="171" type="curve" smooth="yes"/>
      <point x="406" y="166"/>
      <point x="462" y="286"/>
      <point x="486" y="350" type="curve" smooth="yes"/>
      <point x="502" y="393"/>
      <point x="547" y="524"/>
      <point x="467" y="529" type="curve" smooth="yes"/>
      <point x="383" y="534"/>
      <point x="327" y="414"/>
    </contour>
    <contour>
      <point x="100" y="350" type="curve" smooth="yes"/>
      <point x="157" y="530"/>
      <point x="302" y="715"/>
      <point x="507" y="715" type="curve" smooth="yes"/>
      <point x="717" y="715"/>
      <point x="741" y="512"/>
      <point x="690" y="350" type="curve" smooth="yes"/>
      <point x="633" y="168"/>
      <point x="489" y="-16"/>
      <point x="282" y="-15" type="curve" smooth="yes"/>
      <point x="75" y="-14"/>
      <point x="49" y="190"/>
    </contour>
  </outline>
</glyph>
<glyph name="seven" format="2">
  <advance width="611"/>
  <unicode hex="0037"/>
  <outline>
    <contour>
      <point x="142" y="495" type="line"/>
      <point x="207" y="699" type="line"/>
      <point x="801" y="699" type="line"/>
      <point x="264" y="0" type="line"/>
      <point x="24" y="0" type="line"/>
      <point x="420" y="495" type="line"/>
    </contour>
  </outline>
</glyph>
<glyph name="eight" format="2">
  <advance width="636"/>
  <unicode hex="0038"/>
  <outline>
    <contour>
      <point x="195" y="532" type="curve" smooth="yes"/>
      <point x="232" y="660"/>
      <point x="374" y="720"/>
      <point x="497" y="720" type="curve" smooth="yes"/>
      <point x="608" y="720"/>
      <point x="732" y="660"/>
      <point x="695" y="530" type="curve" smooth="yes"/>
      <point x="659" y="403"/>
      <point x="513" y="335"/>
      <point x="390" y="335" type="curve" smooth="yes"/>
      <point x="279" y="335"/>
      <point x="159" y="405"/>
    </contour>
    <contour>
      <point x="385" y="509" type="curve" smooth="yes"/>
      <point x="377" y="486"/>
      <point x="381" y="451"/>
      <point x="410" y="451" type="curve" smooth="yes"/>
      <point x="451" y="451"/>
      <point x="483" y="486"/>
      <point x="492" y="513" type="curve" smooth="yes"/>
      <point x="500" y="537"/>
      <point x="494" y="569"/>
      <point x="465" y="569" type="curve" smooth="yes"/>
      <point x="424" y="569"/>
      <point x="394" y="536"/>
    </contour>
    <contour>
      <point x="55" y="191" type="curve" smooth="yes"/>
      <point x="95" y="330"/>
      <point x="253" y="400"/>
      <point x="388" y="400" type="curve" smooth="yes"/>
      <point x="508" y="400"/>
      <point x="643" y="329"/>
      <point x="603" y="189" type="curve" smooth="yes"/>
      <point x="563" y="51"/>
      <point x="403" y="-20"/>
      <point x="269" y="-20" type="curve" smooth="yes"/>
      <point x="149" y="-20"/>
      <point x="15" y="52"/>
    </contour>
    <contour>
      <point x="278" y="223" type="curve" smooth="yes"/>
      <point x="267" y="194"/>
      <point x="273" y="156"/>
      <point x="309" y="156" type="curve" smooth="yes"/>
      <point x="357" y="156"/>
      <point x="392" y="193"/>
      <point x="404" y="227" type="curve" smooth="yes"/>
      <point x="413" y="255"/>
      <point x="403" y="289"/>
      <point x="370" y="289" type="curve" smooth="yes"/>
      <point x="324" y="289"/>
      <point x="291" y="255"/>
    </contour>
  </outline>
</glyph>
<glyph name="equal" format="2">
  <advance width="595"/>
  <unicode hex="003D"/>
  <outline>
    <contour>
      <point x="6" y="50" type="line"/>
      <point x="64" y="215" type="line"/>
      <point x="572" y="215" type="line"/>
      <point x="514" y="50" type="line"/>
    </contour>
    <contour>
      <point x="87" y="290" type="line"/>
      <point x="146" y="455" type="line"/>
      <point x="654" y="455" type="line"/>
      <point x="596" y="290" type="line"/>
    </contour>
  </outline>
</glyph>
<glyph name="greater" format="2">
  <advance width="602"/>
  <unicode hex="003E"/>
  <outline>
    <contour>
      <point x="328" y="273" type="line"/>
      <point x="126" y="365" type="line"/>
      <point x="189" y="542" type="line"/>
      <point x="603" y="329" type="line"/>
      <point x="556" y="196" type="line"/>
      <point x="-3" y="-16" type="line"/>
      <point x="67" y="188" type="line"/>
    </contour>
  </outline>
</glyph>
<glyph name="at" format="2">
  <advance width="724"/>
  <unicode hex="0040"/>
  <outline>
    <contour>
      <point x="380" y="319" type="curve" smooth="yes"/>
      <point x="376" y="310"/>
      <point x="363" y="274"/>
      <point x="378" y="266" type="curve" smooth="yes"/>
      <point x="407" y="251"/>
      <point x="453" y="342"/>
      <point x="461" y="361" type="curve" smooth="yes"/>
      <point x="465" y="370"/>
      <point x="480" y="406"/>
      <point x="464" y="414" type="curve" smooth="yes"/>
      <point x="433" y="430"/>
      <point x="388" y="339"/>
    </contour>
    <contour>
      <point x="237" y="311" type="curve" smooth="yes"/>
      <point x="262" y="398"/>
      <point x="337" y="533"/>
      <point x="443" y="530" type="curve" smooth="yes"/>
      <point x="526" y="528"/>
      <point x="535" y="431"/>
      <point x="518" y="369" type="curve" smooth="yes"/>
      <point x="495" y="281"/>
      <point x="420" y="152"/>
      <point x="316" y="151" type="curve" smooth="yes"/>
      <point x="224" y="150"/>
      <point x="217" y="242"/>
    </contour>
    <contour>
      <point x="61" y="320" type="curve" smooth="yes"/>
      <point x="128" y="534"/>
      <point x="340" y="730"/>
      <point x="573" y="730" type="curve" smooth="yes"/>
      <point x="769" y="730"/>
      <point x="848" y="557"/>
      <point x="797" y="390" type="curve" smooth="yes"/>
      <point x="762" y="275"/>
      <point x="668" y="135"/>
      <point x="533" y="140" type="curve" smooth="yes"/>
      <point x="454" y="143"/>
      <point x="443" y="194"/>
      <point x="445" y="261" type="curve"/>
      <point x="444" y="311" type="line"/>
      <point x="529" y="520" type="line"/>
      <point x="661" y="520" type="line"/>
      <point x="579" y="319" type="line" smooth="yes"/>
      <point x="575" y="310"/>
      <point x="572" y="302"/>
      <point x="568" y="292" type="curve" smooth="yes"/>
      <point x="565" y="285"/>
      <point x="557" y="263"/>
      <point x="568" y="257" type="curve" smooth="yes"/>
      <point x="608" y="236"/>
      <point x="656" y="367"/>
      <point x="665" y="391" type="curve" smooth="yes"/>
      <point x="701" y="491"/>
      <point x="692" y="609"/>
      <point x="556" y="609" type="curve" smooth="yes"/>
      <point x="389" y="609"/>
      <point x="248" y="466"/>
      <point x="194" y="320" type="curve" smooth="yes"/>
      <point x="149" y="199"/>
      <point x="183" y="89"/>
      <point x="326" y="86" type="curve" smooth="yes"/>
      <point x="389" y="85"/>
      <point x="451" y="106"/>
      <point x="510" y="125" type="curve"/>
      <point x="517" y="13" type="line"/>
      <point x="445" y="-18"/>
      <point x="368" y="-36"/>
      <point x="289" y="-35" type="curve" smooth="yes"/>
      <point x="86" y="-32"/>
      <point x="4" y="138"/>
    </contour>
  </outline>
</glyph>
<glyph name="A" format="2">
  <advance width="733"/>
  <unicode hex="0041"/>
  <outline>
    <contour>
      <point x="167" y="90" type="line"/>
      <point x="223" y="248" type="line"/>
      <point x="578" y="248" type="line"/>
      <point x="522" y="90" type="line"/>
    </contour>
    <contour>
      <point x="441" y="382" type="line"/>
      <point x="301" y="188" type="line"/>
      <point x="301" y="137" type="line"/>
      <point x="184" y="0" type="line"/>
      <point x="-68" y="0" type="line"/>
      <point x="566" y="755" type="line"/>
      <point x="682" y="0" type="line"/>
      <point x="452" y="0" type="line"/>
      <point x="434" y="133" type="line"/>
      <point x="459" y="189" type="line"/>
    </contour>
  </outline>
</glyph>
<glyph name="D" format="2">
  <advance width="719"/>
  <unicode hex="0044"/>
  <outline>
    <contour>
      <point x="248" y="700" type="line"/>
      <point x="470" y="700" type="line"/>
      <point x="230" y="0" type="line"/>
      <point x="8" y="0" type="line"/>
    </contour>
    <contour>
      <point x="282" y="0" type="curve" smooth="yes"/>
      <point x="150" y="0" type="line"/>
      <point x="217" y="190" type="line"/>
      <point x="314" y="190" type="line" smooth="yes"/>
      <point x="418" y="190"/>
      <point x="500" y="253"/>
      <point x="538" y="350" type="curve" smooth="yes"/>
      <point x="573" y="439"/>
      <point x="545" y="511"/>
      <point x="446" y="511" type="curve" smooth="yes"/>
      <point x="324" y="511" type="line"/>
      <point x="391" y="700" type="line"/>
      <point x="497" y="700" type="line" smooth="yes"/>
      <point x="702" y="700"/>
      <point x="823" y="552"/>
      <point x="760" y="350" type="curve" smooth="yes"/>
      <point x="695" y="139"/>
      <point x="500" y="0"/>
    </contour>
  </outline>
</glyph>
<glyph name="J" format="2">
  <advance width="362"/>
  <unicode hex="004A"/>
  <outline>
    <contour>
      <point x="-149" y="-40" type="line"/>
      <point x="-130" y="-54"/>
      <point x="-108" y="-72"/>
      <point x="-83" y="-71" type="curve" smooth="yes"/>
      <point x="-41" y="-70"/>
      <point x="-5" y="-30"/>
      <point x="8" y="6" type="curve" smooth="yes"/>
      <point x="248" y="700" type="line"/>
      <point x="485" y="700" type="line"/>
      <point x="230" y="-51" type="line" smooth="yes"/>
      <point x="183" y="-188"/>
      <point x="46" y="-250"/>
      <point x="-93" y="-250" type="curve" smooth="yes"/>
      <point x="-170" y="-250"/>
      <point x="-239" y="-224"/>
      <point x="-305" y="-186" type="curve"/>
    </contour>
  </outline>
</glyph>
<glyph name="L" format="2">
  <advance width="541"/>
  <unicode hex="004C"/>
  <outline>
    <contour>
      <point x="248" y="700" type="line"/>
      <point x="462" y="700" type="line"/>
      <point x="285" y="185" type="line"/>
      <point x="554" y="185" type="line"/>
      <point x="489" y="0" type="line"/>
      <point x="8" y="0" type="line"/>
    </contour>
  </outline>
</glyph>
<glyph name="S" format="2">
  <advance width="632"/>
  <unicode hex="0053"/>
  <outline>
    <contour>
      <point x="195" y="266" type="line"/>
      <point x="216" y="212"/>
      <point x="244" y="158"/>
      <point x="310" y="159" type="curve" smooth="yes"/>
      <point x="339" y="159"/>
      <point x="380" y="171"/>
      <point x="393" y="201" type="curve" smooth="yes"/>
      <point x="413" y="248"/>
      <point x="335" y="266"/>
      <point x="306" y="280" type="curve" smooth="yes"/>
      <point x="215" y="324"/>
      <point x="156" y="408"/>
      <point x="186" y="511" type="curve" smooth="yes"/>
      <point x="226" y="648"/>
      <point x="381" y="721"/>
      <point x="515" y="720" type="curve" smooth="yes"/>
      <point x="623" y="719"/>
      <point x="697" y="661"/>
      <point x="731" y="561" type="curve"/>
      <point x="554" y="475" type="line"/>
      <point x="537" y="509"/>
      <point x="519" y="538"/>
      <point x="476" y="538" type="curve" smooth="yes"/>
      <point x="452" y="538"/>
      <point x="411" y="526"/>
      <point x="399" y="502" type="curve" smooth="yes"/>
      <point x="377" y="456"/>
      <point x="486" y="434"/>
      <point x="512" y="423" type="curve" smooth="yes"/>
      <point x="605" y="383"/>
      <point x="645" y="296"/>
      <point x="616" y="199" type="curve" smooth="yes"/>
      <point x="572" y="53"/>
      <point x="420" y="-31"/>
      <point x="273" y="-30" type="curve" smooth="yes"/>
      <point x="151" y="-29"/>
      <point x="55" y="43"/>
      <point x="25" y="161" type="curve"/>
    </contour>
  </outline>
</glyph>
<glyph name="bracketleft" format="2">
  <advance width="376"/>
  <unicode hex="005B"/>
  <outline>
    <contour>
      <point x="421" y="615" type="line"/>
      <point x="215" y="-55" type="line"/>
      <point x="310" y="-55" type="line"/>
      <point x="258" y="-220" type="line"/>
      <point x="-26" y="-220" type="line"/>
      <point x="283" y="780" type="line"/>
      <point x="567" y="780" type="line"/>
      <point x="515" y="615" type="line"/>
    </contour>
  </outline>
</glyph>
<glyph name="backslash" format="2">
  <advance width="531"/>
  <unicode hex="005C"/>
  <outline>
    <contour>
      <point x="201" y="700" type="line"/>
      <point x="371" y="700" type="line"/>
      <point x="461" y="0" type="line"/>
      <point x="291" y="0" type="line"/>
    </contour>
  </outline>
</glyph>
<glyph name="bracketright" format="2">
  <advance width="376"/>
  <unicode hex="005D"/>
  <outline>
    <contour>
      <point x="60" y="-55" type="line"/>
      <point x="266" y="615" type="line"/>
      <point x="170" y="615" type="line"/>
      <point x="222" y="780" type="line"/>
      <point x="506" y="780" type="line"/>
      <point x="197" y="-220" type="line"/>
      <point x="-87" y="-220" type="line"/>
      <point x="-35" y="-55" type="line"/>
    </contour>
  </outline>
</glyph>
<glyph name="e" format="2">
  <advance width="573"/>
  <unicode hex="0065"/>
  <outline>
    <contour>
      <point x="278" y="-10" type="curve" smooth="yes"/>
      <point x="147" y="-10"/>
      <point x="55" y="60"/>
      <point x="55" y="170" type="curve" smooth="yes"/>
      <point x="55" y="332"/>
      <point x="202" y="470"/>
      <point x="398" y="470" type="curve" smooth="yes"/>
      <point x="532" y="470"/>
      <point x="593" y="389"/>
      <point x="593" y="289" type="curve" smooth="yes"/>
      <point x="593" y="261"/>
      <point x="585" y="224"/>
      <point x="573" y="190" type="curve"/>
      <point x="136" y="190" type="line"/>
      <point x="136" y="284" type="line"/>
      <point x="432" y="284" type="line"/>
      <point x="394" y="238" type="line"/>
      <point x="402" y="250"/>
      <point x="408" y="264"/>
      <point x="408" y="274" type="curve" smooth="yes"/>
      <point x="408" y="322"/>
      <point x="403" y="350"/>
      <point x="363" y="350" type="curve" smooth="yes"/>
      <point x="309" y="350"/>
      <point x="288" y="314"/>
      <point x="248" y="230" type="curve" smooth="yes"/>
      <point x="217.893" y="166.774"/>
      <point x="244" y="120"/>
      <point x="298" y="120" type="curve" smooth="yes"/>
      <point x="336" y="120"/>
      <point x="359" y="135"/>
      <point x="385" y="165" type="curve"/>
      <point x="552" y="137" type="line"/>
      <point x="502" y="38"/>
      <point x="406" y="-10"/>
    </contour>
  </outline>
</glyph>
<glyph name="i" format="2">
  <advance width="269"/>
  <unicode hex="0069"/>
  <outline>
    <contour>
      <point x="185" y="621" type="curve" smooth="yes"/>
      <point x="185" y="680"/>
      <point x="233" y="719"/>
      <point x="293" y="719" type="curve" smooth="yes"/>
      <point x="353" y="719"/>
      <point x="401" y="680"/>
      <point x="401" y="621" type="curve" smooth="yes"/>
      <point x="401" y="562"/>
      <point x="353" y="523"/>
      <point x="293" y="523" type="curve" smooth="yes"/>
      <point x="233" y="523"/>
      <point x="185" y="562"/>
    </contour>
    <contour>
      <point x="146" y="460" type="line"/>
      <point x="329" y="460" type="line"/>
      <point x="171" y="0" type="line"/>
      <point x="-12" y="0" type="line"/>
    </contour>
  </outline>
</glyph>
<glyph name="j" format="2">
  <advance width="268"/>
  <unicode hex="006A"/>
  <outline>
    <contour>
      <point x="185" y="621" type="curve" smooth="yes"/>
      <point x="185" y="680"/>
      <point x="233" y="719"/>
      <point x="293" y="719" type="curve" smooth="yes"/>
      <point x="353" y="719"/>
      <point x="401" y="680"/>
      <point x="401" y="621" type="curve" smooth="yes"/>
      <point x="401" y="562"/>
      <point x="353" y="523"/>
      <point x="293" y="523" type="curve" smooth="yes"/>
      <point x="233" y="523"/>
      <point x="185" y="562"/>
    </contour>
    <contour>
      <point x="-123" y="-56" type="line"/>
      <point x="-115" y="-67"/>
      <point x="-100" y="-81"/>
      <point x="-80" y="-81" type="curve" smooth="yes"/>
      <point x="-51" y="-81"/>
      <point x="-29" y="-47"/>
      <point x="-21" y="-24" type="curve" smooth="yes"/>
      <point x="147" y="460" type="line"/>
      <point x="328" y="460" type="line"/>
      <point x="145" y="-81" type="line" smooth="yes"/>
      <point x="107" y="-182"/>
      <point x="17" y="-250"/>
      <point x="-93" y="-249" type="curve" smooth="yes"/>
      <point x="-148" y="-249"/>
      <point x="-189" y="-226"/>
      <point x="-229" y="-190" type="curve"/>
    </contour>
  </outline>
</glyph>
<glyph name="m" format="2">
  <advance width="795"/>
  <unicode hex="006D"/>
  <outline>
    <contour>
      <point x="798" y="300" type="curve" smooth="yes"/>
      <point x="697" y="0" type="line"/>
      <point x="506" y="0" type="line"/>
      <point x="607" y="280" type="line" smooth="yes"/>
      <point x="612" y="297"/>
      <point x="626" y="344"/>
      <point x="598" y="344" type="curve" smooth="yes"/>
      <point x="568" y="344"/>
      <point x="540.038" y="319.976"/>
      <point x="527" y="281" type="curve" smooth="yes"/>
      <point x="433" y="0" type="line"/>
      <point x="242" y="0" type="line"/>
      <point x="344" y="281" type="line" smooth="yes"/>
      <point x="349" y="298"/>
      <point x="361" y="344"/>
      <point x="334" y="344" type="curve" smooth="yes"/>
      <point x="306" y="344"/>
      <point x="280.298" y="320.866"/>
      <point x="269" y="288" type="curve" smooth="yes"/>
      <point x="170" y="0" type="line"/>
      <point x="-11" y="0" type="line"/>
      <point x="147" y="460" type="line"/>
      <point x="328" y="460" type="line"/>
      <point x="309" y="404" type="line"/>
      <point x="344" y="443"/>
      <point x="388" y="470"/>
      <point x="446" y="471" type="curve" smooth="yes"/>
      <point x="513" y="472"/>
      <point x="542" y="440"/>
      <point x="547" y="395" type="curve"/>
      <point x="589" y="440"/>
      <point x="644" y="470"/>
      <point x="709" y="471" type="curve" smooth="yes"/>
      <point x="816" y="472"/>
      <point x="823" y="384"/>
    </contour>
  </outline>
</glyph>
<glyph name="n" format="2">
  <advance width="569"/>
  <unicode hex="006E"/>
  <outline>
    <contour>
      <point x="372" y="280" type="line" smooth="yes"/>
      <point x="379.624" y="301.136"/>
      <point x="388" y="344"/>
      <point x="346" y="344" type="curve" smooth="yes"/>
      <point x="310.098" y="344"/>
      <point x="288.333" y="317.854"/>
      <point x="276" y="282" type="curve" smooth="yes"/>
      <point x="179" y="0" type="line"/>
      <point x="-11" y="0" type="line"/>
      <point x="147" y="460" type="line"/>
      <point x="337" y="460" type="line"/>
      <point x="318" y="404" type="line"/>
      <point x="353" y="443"/>
      <point x="399" y="470"/>
      <point x="459" y="471" type="curve" smooth="yes"/>
      <point x="567" y="473"/>
      <point x="603" y="392"/>
      <point x="572" y="300" type="curve" smooth="yes"/>
      <point x="471" y="0" type="line"/>
      <point x="271" y="0" type="line"/>
    </contour>
  </outline>
</glyph>
<glyph name="s" format="2">
  <advance width="459"/>
  <unicode hex="0073"/>
  <outline>
    <contour>
      <point x="87" y="182" type="line"/>
      <point x="124" y="150"/>
      <point x="173" y="102"/>
      <point x="227" y="110" type="curve" smooth="yes"/>
      <point x="239" y="112"/>
      <point x="262" y="123"/>
      <point x="265" y="136" type="curve" smooth="yes"/>
      <point x="272" y="169"/>
      <point x="220" y="177"/>
      <point x="200" y="185" type="curve" smooth="yes"/>
      <point x="136" y="211"/>
      <point x="96" y="265"/>
      <point x="115" y="335" type="curve" smooth="yes"/>
      <point x="140" y="427"/>
      <point x="236" y="468"/>
      <point x="324" y="469" type="curve" smooth="yes"/>
      <point x="395" y="470"/>
      <point x="460" y="443"/>
      <point x="522" y="412" type="curve"/>
      <point x="442" y="284" type="line"/>
      <point x="411" y="314"/>
      <point x="375" y="346"/>
      <point x="328" y="346" type="curve" smooth="yes"/>
      <point x="315" y="346"/>
      <point x="288" y="339"/>
      <point x="283" y="325" type="curve" smooth="yes"/>
      <point x="270" y="291"/>
      <point x="344" y="279"/>
      <point x="363" y="271" type="curve" smooth="yes"/>
      <point x="424" y="246"/>
      <point x="465" y="197"/>
      <point x="449" y="129" type="curve" smooth="yes"/>
      <point x="425" y="29"/>
      <point x="334" y="-22"/>
      <point x="237" y="-24" type="curve" smooth="yes"/>
      <point x="149" y="-26"/>
      <point x="68" y="6"/>
      <point x="-7" y="49" type="curve"/>
    </contour>
  </outline>
</glyph>
<glyph name="t" format="2">
  <advance width="343"/>
  <unicode hex="0074"/>
  <outline>
    <contour>
      <point x="105" y="460" type="line"/>
      <point x="446" y="460" type="line"/>
      <point x="391" y="305" type="line"/>
      <point x="50" y="305" type="line"/>
    </contour>
    <contour>
      <point x="239" y="620" type="line"/>
      <point x="420" y="620" type="line"/>
      <point x="207" y="0" type="line"/>
      <point x="26" y="0" type="line"/>
    </contour>
  </outline>
</glyph>
<glyph name="v" format="2">
  <advance width="545"/>
  <unicode hex="0076"/>
  <outline>
    <contour>
      <point x="105" y="460" type="line"/>
      <point x="299" y="460" type="line"/>
      <point x="315" y="255" type="line"/>
      <point x="463" y="459" type="line"/>
      <point x="666" y="459" type="line"/>
      <point x="222" y="-70" type="line"/>
    </contour>
  </outline>
</glyph>
<glyph name="z" format="2">
  <advance width="526"/>
  <unicode hex="007A"/>
  <outline>
    <contour>
      <point x="250" y="286" type="line"/>
      <point x="100" y="286" type="line"/>
      <point x="161" y="459" type="line"/>
      <point x="625" y="459" type="line"/>
      <point x="343" y="174" type="line"/>
      <point x="485" y="174" type="line"/>
      <point x="424" y="0" type="line"/>
      <point x="-50" y="0" type="line"/>
    </contour>
  </outline>
</glyph>
<glyph name="exclamdown" format="2">
  <advance width="348"/>
  <unicode hex="00A1"/>
  <outline>
    <contour>
      <point x="159" y="-220" type="line"/>
      <point x="-73" y="-220" type="line"/>
      <point x="119" y="230" type="line"/>
      <point x="277" y="230" type="line"/>
    </contour>
    <contour>
      <point x="371" y="403" type="curve" smooth="yes"/>
      <point x="355" y="344"/>
      <point x="291" y="301"/>
      <point x="231" y="301" type="curve" smooth="yes"/>
      <point x="171" y="301"/>
      <point x="128" y="346"/>
      <point x="145" y="407" type="curve" smooth="yes"/>
      <point x="161" y="466"/>
      <point x="225" y="509"/>
      <point x="285" y="509" type="curve" smooth="yes"/>
      <point x="345" y="509"/>
      <point x="388" y="464"/>
    </contour>
  </outline>
</glyph>
<glyph name="sterling" format="2">
  <advance width="592"/>
  <unicode hex="00A3"/>
  <outline>
    <contour>
      <point x="133" y="370" type="line"/>
      <point x="506" y="370" type="line"/>
      <point x="465" y="255" type="line"/>
      <point x="91" y="255" type="line"/>
    </contour>
    <contour>
      <point x="508" y="460" type="line"/>
      <point x="513" y="500"/>
      <point x="515" y="543"/>
      <point x="464" y="545" type="curve" smooth="yes"/>
      <point x="423" y="547"/>
      <point x="381" y="515"/>
      <point x="365" y="479" type="curve" smooth="yes"/>
      <point x="335" y="412"/>
      <point x="400" y="343"/>
      <point x="380" y="273" type="curve" smooth="yes"/>
      <point x="346" y="152"/>
      <point x="198" y="84"/>
      <point x="88" y="54" type="curve"/>
      <point x="199" y="174" type="line"/>
      <point x="529" y="175" type="line"/>
      <point x="468" y="0" type="line"/>
      <point x="-13" y="0" type="line"/>
      <point x="73" y="92"/>
      <point x="177" y="183"/>
      <point x="212" y="309" type="curve" smooth="yes"/>
      <point x="234" y="386"/>
      <point x="163" y="447"/>
      <point x="183" y="524" type="curve" smooth="yes"/>
      <point x="216" y="649"/>
      <point x="369" y="709"/>
      <point x="487" y="709" type="curve" smooth="yes"/>
      <point x="603" y="709"/>
      <point x="702" y="645"/>
      <point x="694" y="522" type="curve"/>
    </contour>
  </outline>
</glyph>
<glyph name="macron" format="2">
  <advance width="512"/>
  <unicode hex="00AF"/>
  <outline>
    <contour>
      <point x="208" y="555" type="line"/>
      <point x="260" y="720" type="line"/>
      <point x="629" y="720" type="line"/>
      <point x="577" y="555" type="line"/>
    </contour>
  </outline>
</glyph>
<glyph name="degree" format="2">
  <advance width="289"/>
  <unicode hex="00B0"/>
  <outline>
    <contour>
      <point x="160" y="597" type="curve" smooth="yes"/>
      <point x="179" y="666"/>
      <point x="254" y="719"/>
      <point x="325" y="719" type="curve" smooth="yes"/>
      <point x="396" y="719"/>
      <point x="447" y="664"/>
      <point x="427" y="593" type="curve" smooth="yes"/>
      <point x="408" y="523"/>
      <point x="332" y="471"/>
      <point x="260" y="471" type="curve" smooth="yes"/>
      <point x="189" y="471"/>
      <point x="140" y="527"/>
    </contour>
    <contour>
      <point x="252" y="593" type="curve" smooth="yes"/>
      <point x="247" y="578"/>
      <point x="253" y="554"/>
      <point x="272" y="552" type="curve" smooth="yes"/>
      <point x="294" y="550"/>
      <point x="327" y="578"/>
      <point x="334" y="597" type="curve" smooth="yes"/>
      <point x="339" y="612"/>
      <point x="333" y="637"/>
      <point x="314" y="639" type="curve" smooth="yes"/>
      <point x="292" y="641"/>
      <point x="259" y="612"/>
    </contour>
  </outline>
</glyph>
<glyph name="uni00B2" format="2">
  <advance width="419"/>
  <unicode hex="00B2"/>
  <outline>
    <contour>
      <point x="55" y="283" type="line"/>
      <point x="289" y="465" type="line" smooth="yes"/>
      <point x="321" y="489"/>
      <point x="377" y="520"/>
      <point x="388" y="562" type="curve" smooth="yes"/>
      <point x="392" y="578"/>
      <point x="388" y="598"/>
      <point x="369" y="600" type="curve" smooth="yes"/>
      <point x="336" y="604"/>
      <point x="313" y="563"/>
      <point x="299" y="540" type="curve"/>
      <point x="171" y="542" type="line"/>
      <point x="208" y="635"/>
      <point x="285" y="711"/>
      <point x="391" y="711" type="curve" smooth="yes"/>
      <point x="470" y="711"/>
      <point x="546" y="656"/>
      <point x="522" y="570" type="curve" smooth="yes"/>
      <point x="509" y="523"/>
      <point x="470" y="488"/>
      <point x="432" y="461" type="curve" smooth="yes"/>
      <point x="341" y="403" type="line"/>
      <point x="479" y="401" type="line"/>
      <point x="437" y="282" type="line"/>
    </contour>
  </outline>
</glyph>
<glyph name="uni00B3" format="2">
  <advance width="373"/>
  <unicode hex="00B3"/>
  <outline>
    <contour>
      <point x="263" y="482" type="curve"/>
      <point x="279" y="533" type="line"/>
      <point x="307" y="539"/>
      <point x="359" y="548"/>
      <point x="368" y="582" type="curve" smooth="yes"/>
      <point x="371" y="595"/>
      <point x="360" y="606"/>
      <point x="348" y="606" type="curve" smooth="yes"/>
      <point x="322" y="605"/>
      <point x="305" y="584"/>
      <point x="290" y="567" type="curve"/>
      <point x="168" y="569" type="line"/>
      <point x="204" y="649"/>
      <point x="271" y="706"/>
      <point x="363" y="708" type="curve" smooth="yes"/>
      <point x="432" y="709"/>
      <point x="517" y="671"/>
      <point x="493" y="588" type="curve" smooth="yes"/>
      <point x="466" y="493"/>
      <point x="344" y="485"/>
    </contour>
    <contour>
      <point x="229" y="268" type="curve" smooth="yes"/>
      <point x="132" y="270"/>
      <point x="89" y="336"/>
      <point x="99" y="427" type="curve"/>
      <point x="221" y="426" type="line"/>
      <point x="221" y="402"/>
      <point x="217" y="375"/>
      <point x="249" y="371" type="curve" smooth="yes"/>
      <point x="271" y="368"/>
      <point x="308" y="391"/>
      <point x="315" y="412" type="curve" smooth="yes"/>
      <point x="329" y="452"/>
      <point x="275" y="454"/>
      <point x="250" y="458" type="curve"/>
      <point x="270" y="518" type="line"/>
      <point x="344" y="515"/>
      <point x="467" y="499"/>
      <point x="439" y="395" type="curve" smooth="yes"/>
      <point x="416" y="308"/>
      <point x="311" y="266"/>
    </contour>
  </outline>
</glyph>
<glyph name="mu" format="2">
  <advance width="605"/>
  <unicode hex="00B5"/>
  <outline>
    <contour>
      <point x="345" y="460" type="line"/>
      <point x="255" y="220" type="line" smooth="yes"/>
      <point x="241.521" y="184.055"/>
      <point x="253" y="154"/>
      <point x="293" y="154" type="curve" smooth="yes"/>
      <point x="328" y="154"/>
      <point x="344.877" y="179.671"/>
      <point x="360" y="220" type="curve" smooth="yes"/>
      <point x="450" y="460" type="line"/>
      <point x="625" y="460" type="line"/>
      <point x="475" y="0" type="line"/>
      <point x="280" y="0" type="line"/>
      <point x="297" y="47" type="line"/>
      <point x="274" y="12"/>
      <point x="245.017" y="0"/>
      <point x="225" y="0" type="curve" smooth="yes"/>
      <point x="207" y="0"/>
      <point x="192" y="2"/>
      <point x="176" y="20" type="curve"/>
      <point x="65" y="-320" type="line"/>
      <point x="-120" y="-320" type="line"/>
      <point x="150" y="460" type="line"/>
    </contour>
  </outline>
</glyph>
<glyph name="Adieresis" format="2">
  <advance width="733"/>
  <unicode hex="00C4"/>
  <outline>
    <contour>
      <point x="167" y="90" type="line"/>
      <point x="223" y="248" type="line"/>
      <point x="578" y="248" type="line"/>
      <point x="522" y="90" type="line"/>
    </contour>
    <contour>
      <point x="451" y="382" type="line"/>
      <point x="301" y="188" type="line"/>
      <point x="301" y="137" type="line"/>
      <point x="184" y="0" type="line"/>
      <point x="-68" y="0" type="line"/>
      <point x="566" y="755" type="line"/>
      <point x="682" y="0" type="line"/>
      <point x="452" y="0" type="line"/>
      <point x="424" y="133" type="line"/>
      <point x="459" y="189" type="line"/>
    </contour>
    <contour>
      <point x="643" y="821" type="curve" smooth="yes"/>
      <point x="658" y="874"/>
      <point x="718" y="915"/>
      <point x="772" y="915" type="curve" smooth="yes"/>
      <point x="827" y="915"/>
      <point x="866" y="870"/>
      <point x="851" y="815" type="curve" smooth="yes"/>
      <point x="836" y="762"/>
      <point x="776" y="721"/>
      <point x="722" y="721" type="curve" smooth="yes"/>
      <point x="667" y="721"/>
      <point x="628" y="766"/>
    </contour>
    <contour>
      <point x="327" y="831" type="curve" smooth="yes"/>
      <point x="342" y="884"/>
      <point x="402" y="925"/>
      <point x="456" y="925" type="curve" smooth="yes"/>
      <point x="511" y="925"/>
      <point x="550" y="880"/>
      <point x="535" y="825" type="curve" smooth="yes"/>
      <point x="520" y="772"/>
      <point x="460" y="731"/>
      <point x="406" y="731" type="curve" smooth="yes"/>
      <point x="351" y="731"/>
      <point x="312" y="776"/>
    </contour>
  </outline>
</glyph>
<glyph name="Eacute" format="2">
  <advance width="597"/>
  <unicode hex="00C9"/>
  <outline>
    <contour>
      <point x="150" y="0" type="line"/>
      <point x="212" y="175" type="line"/>
      <point x="551" y="175" type="line"/>
      <point x="489" y="0" type="line"/>
    </contour>
    <contour>
      <point x="330" y="525" type="line"/>
      <point x="391" y="700" type="line"/>
      <point x="730" y="700" type="line"/>
      <point x="669" y="525" type="line"/>
    </contour>
    <contour>
      <point x="244" y="275" type="line"/>
      <point x="304" y="445" type="line"/>
      <point x="624" y="445" type="line"/>
      <point x="564" y="275" type="line"/>
    </contour>
    <contour>
      <point x="248" y="700" type="line"/>
      <point x="452" y="700" type="line"/>
      <point x="212" y="0" type="line"/>
      <point x="8" y="0" type="line"/>
    </contour>
    <contour>
      <point x="738" y="933" type="line"/>
      <point x="525" y="791" type="line"/>
      <point x="425" y="847" type="line"/>
      <point x="614" y="998" type="line"/>
    </contour>
  </outline>
</glyph>
<glyph name="Icircumflex" format="2">
  <advance width="343"/>
  <unicode hex="00CE"/>
  <outline>
    <contour>
      <point x="248" y="700" type="line"/>
      <point x="466" y="700" type="line"/>
      <point x="226" y="0" type="line"/>
      <point x="8" y="0" type="line"/>
    </contour>
    <contour>
      <point x="388" y="857" type="line"/>
      <point x="286" y="780" type="line"/>
      <point x="176" y="877" type="line"/>
      <point x="421" y="1010" type="line"/>
      <point x="590" y="863" type="line"/>
      <point x="436" y="778" type="line"/>
    </contour>
  </outline>
</glyph>
<glyph name="Ocircumflex" format="2">
  <advance width="790"/>
  <unicode hex="00D4"/>
  <outline>
    <contour>
      <point x="315" y="350" type="curve" smooth="yes"/>
      <point x="287" y="277"/>
      <point x="293" y="182"/>
      <point x="390" y="179" type="curve" smooth="yes"/>
      <point x="489" y="176"/>
      <point x="572" y="264"/>
      <point x="606" y="350" type="curve" smooth="yes"/>
      <point x="635" y="424"/>
      <point x="629" y="519"/>
      <point x="531" y="521" type="curve" smooth="yes"/>
      <point x="432" y="523"/>
      <point x="348" y="436"/>
    </contour>
    <contour>
      <point x="90" y="350" type="curve" smooth="yes"/>
      <point x="154" y="555"/>
      <point x="356" y="720"/>
      <point x="574" y="720" type="curve" smooth="yes"/>
      <point x="784" y="720"/>
      <point x="891" y="543"/>
      <point x="831" y="350" type="curve" smooth="yes"/>
      <point x="767" y="143"/>
      <point x="565" y="-31"/>
      <point x="343" y="-30" type="curve" smooth="yes"/>
      <point x="129" y="-29"/>
      <point x="30" y="157"/>
    </contour>
    <contour>
      <point x="671" y="893" type="line"/>
      <point x="533" y="800" type="line"/>
      <point x="489" y="846" type="line"/>
      <point x="682" y="981" type="line"/>
      <point x="795" y="835" type="line"/>
      <point x="741" y="800" type="line"/>
    </contour>
  </outline>
</glyph>
<glyph name="Otilde" format="2">
  <advance width="790"/>
  <unicode hex="00D5"/>
  <outline>
    <contour>
      <point x="315" y="350" type="curve" smooth="yes"/>
      <point x="287" y="277"/>
      <point x="293" y="182"/>
      <point x="390" y="179" type="curve" smooth="yes"/>
      <point x="489" y="176"/>
      <point x="572" y="264"/>
      <point x="606" y="350" type="curve" smooth="yes"/>
      <point x="635" y="424"/>
      <point x="629" y="519"/>
      <point x="531" y="521" type="curve" smooth="yes"/>
      <point x="432" y="523"/>
      <point x="348" y="436"/>
    </contour>
    <contour>
      <point x="90" y="350" type="curve" smooth="yes"/>
      <point x="154" y="555"/>
      <point x="356" y="720"/>
      <point x="574" y="720" type="curve" smooth="yes"/>
      <point x="784" y="720"/>
      <point x="891" y="543"/>
      <point x="831" y="350" type="curve" smooth="yes"/>
      <point x="767" y="143"/>
      <point x="565" y="-31"/>
      <point x="343" y="-30" type="curve" smooth="yes"/>
      <point x="129" y="-29"/>
      <point x="30" y="157"/>
    </contour>
    <contour>
      <point x="483" y="867" type="line"/>
      <point x="473" y="906"/>
      <point x="572" y="945"/>
      <point x="600" y="944" type="curve" smooth="yes"/>
      <point x="639" y="943"/>
      <point x="662" y="897"/>
      <point x="701" y="900" type="curve" smooth="yes"/>
      <point x="729" y="902"/>
      <point x="753" y="929"/>
      <point x="773" y="946" type="curve"/>
      <point x="811" y="898" type="line"/>
      <point x="783" y="867"/>
      <point x="741" y="827"/>
      <point x="695" y="831" type="curve" smooth="yes"/>
      <point x="657" y="834"/>
      <point x="636" y="878"/>
      <point x="598" y="876" type="curve" smooth="yes"/>
      <point x="568" y="874"/>
      <point x="546" y="847"/>
      <point x="529" y="826" type="curve"/>
    </contour>
  </outline>
</glyph>
<glyph name="multiply" format="2">
  <advance width="560"/>
  <unicode hex="00D7"/>
  <outline>
    <contour>
      <point x="92" y="-9" type="line"/>
      <point x="16" y="118" type="line"/>
      <point x="209" y="263" type="line"/>
      <point x="116" y="411" type="line"/>
      <point x="257" y="520" type="line"/>
      <point x="344" y="370" type="line"/>
      <point x="534" y="519" type="line"/>
      <point x="611" y="392" type="line"/>
      <point x="417" y="247" type="line"/>
      <point x="510" y="99" type="line"/>
      <point x="369" y="-10" type="line"/>
      <point x="283" y="140" type="line"/>
    </contour>
  </outline>
</glyph>
<glyph name="Oslash" format="2">
  <advance width="743"/>
  <unicode hex="00D8"/>
  <outline>
    <contour>
      <point x="315" y="350" type="curve" smooth="yes"/>
      <point x="286" y="276"/>
      <point x="292" y="181"/>
      <point x="390" y="179" type="curve" smooth="yes"/>
      <point x="490" y="176"/>
      <point x="572" y="263"/>
      <point x="606" y="350" type="curve" smooth="yes"/>
      <point x="635" y="424"/>
      <point x="629" y="519"/>
      <point x="531" y="521" type="curve" smooth="yes"/>
      <point x="431" y="524"/>
      <point x="349" y="437"/>
    </contour>
    <contour>
      <point x="90" y="350" type="curve" smooth="yes"/>
      <point x="154" y="556"/>
      <point x="355" y="721"/>
      <point x="574" y="720" type="curve" smooth="yes"/>
      <point x="783" y="719"/>
      <point x="891" y="543"/>
      <point x="831" y="350" type="curve" smooth="yes"/>
      <point x="767" y="144"/>
      <point x="564" y="-31"/>
      <point x="343" y="-30" type="curve" smooth="yes"/>
      <point x="130" y="-29"/>
      <point x="30" y="158"/>
    </contour>
    <contour>
      <point x="856" y="759" type="line"/>
      <point x="921" y="690" type="line"/>
      <point x="57" y="-60" type="line"/>
      <point x="-5" y="0" type="line"/>
    </contour>
  </outline>
</glyph>
<glyph name="Ucircumflex" format="2">
  <advance width="701"/>
  <unicode hex="00DB"/>
  <outline>
    <contour>
      <point x="243" y="700" type="line"/>
      <point x="457" y="700" type="line"/>
      <point x="299" y="250" type="line" smooth="yes"/>
      <point x="287" y="209"/>
      <point x="285" y="159"/>
      <point x="339" y="156" type="curve" smooth="yes"/>
      <point x="395" y="153"/>
      <point x="440" y="204"/>
      <point x="460" y="251" type="curve"/>
      <point x="616" y="700" type="line"/>
      <point x="829" y="700" type="line"/>
      <point x="670" y="230" type="line" smooth="yes"/>
      <point x="612" y="68"/>
      <point x="469" y="-40"/>
      <point x="295" y="-40" type="curve" smooth="yes"/>
      <point x="132" y="-40"/>
      <point x="37" y="69"/>
      <point x="84" y="230" type="curve" smooth="yes"/>
    </contour>
    <contour>
      <point x="598" y="857" type="line"/>
      <point x="497" y="780" type="line"/>
      <point x="387" y="877" type="line"/>
      <point x="632" y="1010" type="line"/>
      <point x="800" y="863" type="line"/>
      <point x="646" y="778" type="line"/>
    </contour>
  </outline>
</glyph>
<glyph name="germandbls" format="2">
  <advance width="626"/>
  <unicode hex="00DF"/>
  <outline>
    <contour>
      <point x="432" y="-12" type="curve" smooth="yes"/>
      <point x="384" y="-12"/>
      <point x="277" y="-2"/>
      <point x="245" y="11" type="curve"/>
      <point x="264" y="160" type="line"/>
      <point x="290" y="147"/>
      <point x="330" y="138"/>
      <point x="358" y="138" type="curve" smooth="yes"/>
      <point x="404" y="138"/>
      <point x="432" y="165"/>
      <point x="432" y="205" type="curve" smooth="yes"/>
      <point x="432" y="293"/>
      <point x="342" y="305"/>
      <point x="342" y="367" type="curve" smooth="yes"/>
      <point x="342" y="457"/>
      <point x="506" y="470"/>
      <point x="506" y="570" type="curve" smooth="yes"/>
      <point x="506" y="609"/>
      <point x="490" y="626"/>
      <point x="462" y="626" type="curve" smooth="yes"/>
      <point x="409" y="626"/>
      <point x="374.221" y="588.209"/>
      <point x="354" y="528" type="curve" smooth="yes"/>
      <point x="176" y="-2" type="line"/>
      <point x="-19" y="-2" type="line"/>
      <point x="160" y="519" type="line" smooth="yes"/>
      <point x="216.85" y="684.468"/>
      <point x="276" y="799"/>
      <point x="502" y="799" type="curve" smooth="yes"/>
      <point x="622" y="799"/>
      <point x="708" y="712"/>
      <point x="708" y="612" type="curve" smooth="yes"/>
      <point x="708" y="496"/>
      <point x="544" y="424"/>
      <point x="544" y="380" type="curve" smooth="yes"/>
      <point x="544" y="320"/>
      <point x="634" y="343"/>
      <point x="634" y="200" type="curve" smooth="yes"/>
      <point x="634" y="82"/>
      <point x="555" y="-12"/>
    </contour>
  </outline>
</glyph>
<glyph name="igrave" format="2">
  <advance width="269"/>
  <unicode hex="00EC"/>
  <outline>
    <contour>
      <point x="146" y="460" type="line"/>
      <point x="329" y="460" type="line"/>
      <point x="171" y="0" type="line"/>
      <point x="-12" y="0" type="line"/>
    </contour>
    <contour>
      <point x="133" y="687" type="line"/>
      <point x="276" y="742" type="line"/>
      <point x="368" y="574" type="line"/>
      <point x="258" y="531" type="line"/>
    </contour>
  </outline>
</glyph>
<glyph name="iacute" format="2">
  <advance width="269"/>
  <unicode hex="00ED"/>
  <outline>
    <contour>
      <point x="146" y="460" type="line"/>
      <point x="329" y="460" type="line"/>
      <point x="171" y="0" type="line"/>
      <point x="-12" y="0" type="line"/>
    </contour>
    <contour>
      <point x="484" y="674" type="line"/>
      <point x="271" y="532" type="line"/>
      <point x="171" y="588" type="line"/>
      <point x="360" y="739" type="line"/>
    </contour>
  </outline>
</glyph>
<glyph name="ograve" format="2">
  <advance width="579"/>
  <unicode hex="00F2"/>
  <outline>
    <contour>
      <point x="49" y="231" type="curve" smooth="yes"/>
      <point x="91" y="374"/>
      <point x="237" y="471"/>
      <point x="384" y="471" type="curve" smooth="yes"/>
      <point x="522" y="471"/>
      <point x="620" y="368"/>
      <point x="579" y="229" type="curve" smooth="yes"/>
      <point x="537" y="86"/>
      <point x="390" y="-10"/>
      <point x="244" y="-10" type="curve" smooth="yes"/>
      <point x="106" y="-10"/>
      <point x="8" y="92"/>
    </contour>
    <contour>
      <point x="242" y="229" type="curve" smooth="yes"/>
      <point x="229" y="196"/>
      <point x="232" y="149"/>
      <point x="276" y="146" type="curve" smooth="yes"/>
      <point x="323" y="143"/>
      <point x="370" y="191"/>
      <point x="386" y="231" type="curve" smooth="yes"/>
      <point x="399" y="264"/>
      <point x="396" y="312"/>
      <point x="352" y="315" type="curve" smooth="yes"/>
      <point x="305" y="318"/>
      <point x="258" y="269"/>
    </contour>
    <contour>
      <point x="320" y="687" type="line"/>
      <point x="462" y="742" type="line"/>
      <point x="554" y="574" type="line"/>
      <point x="444" y="531" type="line"/>
    </contour>
  </outline>
</glyph>
<glyph name="ocircumflex" format="2">
  <advance width="579"/>
  <unicode hex="00F4"/>
  <outline>
    <contour>
      <point x="49" y="231" type="curve" smooth="yes"/>
      <point x="91" y="374"/>
      <point x="237" y="471"/>
      <point x="384" y="471" type="curve" smooth="yes"/>
      <point x="522" y="471"/>
      <point x="620" y="368"/>
      <point x="579" y="229" type="curve" smooth="yes"/>
      <point x="537" y="86"/>
      <point x="390" y="-10"/>
      <point x="244" y="-10" type="curve" smooth="yes"/>
      <point x="106" y="-10"/>
      <point x="8" y="92"/>
    </contour>
    <contour>
      <point x="242" y="229" type="curve" smooth="yes"/>
      <point x="229" y="196"/>
      <point x="232" y="149"/>
      <point x="276" y="146" type="curve" smooth="yes"/>
      <point x="323" y="143"/>
      <point x="370" y="191"/>
      <point x="386" y="231" type="curve" smooth="yes"/>
      <point x="399" y="264"/>
      <point x="396" y="312"/>
      <point x="352" y="315" type="curve" smooth="yes"/>
      <point x="305" y="318"/>
      <point x="258" y="269"/>
    </contour>
    <contour>
      <point x="452" y="608" type="line"/>
      <point x="351" y="531" type="line"/>
      <point x="241" y="628" type="line"/>
      <point x="485" y="761" type="line"/>
      <point x="654" y="614" type="line"/>
      <point x="500" y="529" type="line"/>
    </contour>
  </outline>
</glyph>
<glyph name="divide" format="2">
  <advance width="611"/>
  <unicode hex="00F7"/>
  <outline>
    <contour>
      <point x="348" y="617" type="curve" smooth="yes"/>
      <point x="365" y="677"/>
      <point x="428" y="729"/>
      <point x="491" y="729" type="curve" smooth="yes"/>
      <point x="555" y="729"/>
      <point x="592" y="672"/>
      <point x="575" y="613" type="curve" smooth="yes"/>
      <point x="558" y="553"/>
      <point x="495" y="501"/>
      <point x="432" y="501" type="curve" smooth="yes"/>
      <point x="368" y="501"/>
      <point x="331" y="558"/>
    </contour>
    <contour>
      <point x="177" y="117" type="curve" smooth="yes"/>
      <point x="194" y="177"/>
      <point x="258" y="229"/>
      <point x="321" y="229" type="curve" smooth="yes"/>
      <point x="385" y="229"/>
      <point x="421" y="172"/>
      <point x="404" y="113" type="curve" smooth="yes"/>
      <point x="387" y="53"/>
      <point x="324" y="1"/>
      <point x="261" y="1" type="curve" smooth="yes"/>
      <point x="197" y="1"/>
      <point x="160" y="58"/>
    </contour>
    <contour>
      <point x="42" y="280" type="line"/>
      <point x="102" y="450" type="line"/>
      <point x="711" y="450" type="line"/>
      <point x="651" y="280" type="line"/>
    </contour>
  </outline>
</glyph>
<glyph name="thorn" format="2">
  <advance width="606"/>
  <unicode hex="00FE"/>
  <outline>
    <contour>
      <point x="104" y="-220" type="line"/>
      <point x="-86" y="-220" type="line"/>
      <point x="256" y="780" type="line"/>
      <point x="447" y="780" type="line"/>
    </contour>
    <contour>
      <point x="606" y="229" type="curve" smooth="yes"/>
      <point x="571" y="112"/>
      <point x="464" y="-10"/>
      <point x="333" y="-10" type="curve" smooth="yes"/>
      <point x="201" y="-10"/>
      <point x="177" y="128"/>
      <point x="208" y="231" type="curve" smooth="yes"/>
      <point x="243" y="346"/>
      <point x="343" y="469"/>
      <point x="473" y="469" type="curve" smooth="yes"/>
      <point x="605" y="469"/>
      <point x="638" y="336"/>
    </contour>
    <contour>
      <point x="409" y="231" type="curve" smooth="yes"/>
      <point x="422" y="265"/>
      <point x="416" y="316"/>
      <point x="371" y="319" type="curve" smooth="yes"/>
      <point x="323" y="322"/>
      <point x="271" y="270"/>
      <point x="255" y="229" type="curve" smooth="yes"/>
      <point x="242" y="195"/>
      <point x="248" y="144"/>
      <point x="293" y="141" type="curve" smooth="yes"/>
      <point x="341" y="138"/>
      <point x="393" y="190"/>
    </contour>
  </outline>
</glyph>
<glyph name="amacron" format="2">
  <advance width="545"/>
  <unicode hex="0101"/>
  <outline>
    <contour>
      <point x="196" y="137" type="curve" smooth="yes"/>
      <point x="192" y="119"/>
      <point x="207" y="109"/>
      <point x="222" y="107" type="curve" smooth="yes"/>
      <point x="274" y="102"/>
      <point x="309" y="152"/>
      <point x="334" y="189" type="curve"/>
      <point x="332" y="128" type="line"/>
      <point x="295" y="47"/>
      <point x="227" y="-8"/>
      <point x="135" y="-9" type="curve" smooth="yes"/>
      <point x="52" y="-10"/>
      <point x="-19" y="42"/>
      <point x="6" y="131" type="curve" smooth="yes"/>
      <point x="34" y="228"/>
      <point x="143" y="273"/>
      <point x="236" y="274" type="curve" smooth="yes"/>
      <point x="290" y="275"/>
      <point x="338" y="262"/>
      <point x="382" y="231" type="curve"/>
      <point x="357" y="148" type="line"/>
      <point x="332" y="168"/>
      <point x="308" y="182"/>
      <point x="274" y="180" type="curve" smooth="yes"/>
      <point x="250" y="178"/>
      <point x="203" y="164"/>
    </contour>
    <contour>
      <point x="167" y="297" type="curve"/>
      <point x="145" y="426" type="line"/>
      <point x="218" y="452"/>
      <point x="294" y="475"/>
      <point x="372" y="475" type="curve" smooth="yes"/>
      <point x="465" y="475"/>
      <point x="582" y="435"/>
      <point x="555" y="320" type="curve"/>
      <point x="447" y="0" type="line"/>
      <point x="266" y="0" type="line"/>
      <point x="365" y="273" type="line"/>
      <point x="373" y="307"/>
      <point x="360" y="326"/>
      <point x="325" y="331" type="curve" smooth="yes"/>
      <point x="273" y="338"/>
      <point x="215" y="314"/>
    </contour>
    <contour>
      <point x="218" y="535" type="line"/>
      <point x="276" y="700" type="line"/>
      <point x="646" y="700" type="line"/>
      <point x="588" y="535" type="line"/>
    </contour>
  </outline>
</glyph>
<glyph name="Aogonek" format="2">
  <advance width="733"/>
  <unicode hex="0104"/>
  <outline>
    <contour>
      <point x="167" y="90" type="line"/>
      <point x="223" y="248" type="line"/>
      <point x="578" y="248" type="line"/>
      <point x="522" y="90" type="line"/>
    </contour>
    <contour>
      <point x="451" y="382" type="line"/>
      <point x="301" y="188" type="line"/>
      <point x="301" y="137" type="line"/>
      <point x="184" y="0" type="line"/>
      <point x="-68" y="0" type="line"/>
      <point x="566" y="755" type="line"/>
      <point x="682" y="0" type="line"/>
      <point x="452" y="0" type="line"/>
      <point x="424" y="133" type="line"/>
      <point x="459" y="189" type="line"/>
    </contour>
    <contour>
      <point x="577" y="-99" type="curve"/>
      <point x="585" y="-183" type="line"/>
      <point x="552" y="-205"/>
      <point x="517" y="-221"/>
      <point x="477" y="-220" type="curve" smooth="yes"/>
      <point x="420" y="-218"/>
      <point x="379" y="-177"/>
      <point x="394" y="-118" type="curve" smooth="yes"/>
      <point x="414" y="-41"/>
      <point x="506" y="-5"/>
      <point x="570" y="25" type="curve"/>
      <point x="611" y="0" type="line"/>
      <point x="578" y="-25"/>
      <point x="524" y="-48"/>
      <point x="510" y="-91" type="curve" smooth="yes"/>
      <point x="507" y="-102"/>
      <point x="506" y="-116"/>
      <point x="520" y="-119" type="curve" smooth="yes"/>
      <point x="537" y="-122"/>
      <point x="562" y="-106"/>
    </contour>
  </outline>
</glyph>
<glyph name="cacute" format="2">
  <advance width="473"/>
  <unicode hex="0107"/>
  <outline>
    <contour>
      <point x="243" y="229" type="curve" smooth="yes"/>
      <point x="225" y="182"/>
      <point x="246" y="143"/>
      <point x="297" y="140" type="curve" smooth="yes"/>
      <point x="348" y="136"/>
      <point x="396" y="168"/>
      <point x="436" y="195" type="curve"/>
      <point x="386" y="21" type="line"/>
      <point x="342" y="2"/>
      <point x="297" y="-10"/>
      <point x="249" y="-10" type="curve" smooth="yes"/>
      <point x="111" y="-10"/>
      <point x="7" y="89"/>
      <point x="49" y="231" type="curve" smooth="yes"/>
      <point x="92" y="377"/>
      <point x="241" y="470"/>
      <point x="389" y="470" type="curve" smooth="yes"/>
      <point x="436" y="470"/>
      <point x="478" y="458"/>
      <point x="521" y="440" type="curve"/>
      <point x="469" y="264" type="line"/>
      <point x="447" y="298"/>
      <point x="423" y="323"/>
      <point x="380" y="322" type="curve" smooth="yes"/>
      <point x="326" y="321"/>
      <point x="262" y="280"/>
    </contour>
    <contour>
      <point x="598" y="674" type="line"/>
      <point x="385" y="532" type="line"/>
      <point x="285" y="588" type="line"/>
      <point x="474" y="739" type="line"/>
    </contour>
  </outline>
</glyph>
<glyph name="Edotaccent" format="2">
  <advance width="597"/>
  <unicode hex="0116"/>
  <outline>
    <contour>
      <point x="150" y="0" type="line"/>
      <point x="212" y="175" type="line"/>
      <point x="551" y="175" type="line"/>
      <point x="489" y="0" type="line"/>
    </contour>
    <contour>
      <point x="330" y="525" type="line"/>
      <point x="391" y="700" type="line"/>
      <point x="730" y="700" type="line"/>
      <point x="669" y="525" type="line"/>
    </contour>
    <contour>
      <point x="244" y="275" type="line"/>
      <point x="304" y="445" type="line"/>
      <point x="624" y="445" type="line"/>
      <point x="564" y="275" type="line"/>
    </contour>
    <contour>
      <point x="248" y="700" type="line"/>
      <point x="452" y="700" type="line"/>
      <point x="212" y="0" type="line"/>
      <point x="8" y="0" type="line"/>
    </contour>
    <contour>
      <point x="444" y="881" type="curve" smooth="yes"/>
      <point x="459" y="934"/>
      <point x="519" y="975"/>
      <point x="573" y="975" type="curve" smooth="yes"/>
      <point x="628" y="975"/>
      <point x="667" y="930"/>
      <point x="652" y="875" type="curve" smooth="yes"/>
      <point x="637" y="822"/>
      <point x="578" y="781"/>
      <point x="524" y="781" type="curve" smooth="yes"/>
      <point x="469" y="781"/>
      <point x="429" y="826"/>
    </contour>
  </outline>
</glyph>
<glyph name="edotaccent" format="2">
  <advance width="573"/>
  <unicode hex="0117"/>
  <outline>
    <contour>
      <point x="141" y="191" type="line"/>
      <point x="170" y="283" type="line"/>
      <point x="385" y="285" type="line"/>
      <point x="388" y="312"/>
      <point x="394" y="345"/>
      <point x="358" y="349" type="curve" smooth="yes"/>
      <point x="302" y="355"/>
      <point x="269" y="289"/>
      <point x="248" y="249" type="curve" smooth="yes"/>
      <point x="237" y="229" type="line"/>
      <point x="221" y="190"/>
      <point x="211" y="130"/>
      <point x="266" y="122" type="curve" smooth="yes"/>
      <point x="305" y="117"/>
      <point x="343" y="142"/>
      <point x="372" y="164" type="curve"/>
      <point x="541" y="133" type="line"/>
      <point x="468" y="46"/>
      <point x="370" y="-10"/>
      <point x="254" y="-10" type="curve" smooth="yes"/>
      <point x="110" y="-10"/>
      <point x="8" y="82"/>
      <point x="50" y="230" type="curve" smooth="yes"/>
      <point x="55" y="247"/>
      <point x="61" y="263"/>
      <point x="68" y="279" type="curve" smooth="yes"/>
      <point x="125" y="401"/>
      <point x="252" y="470"/>
      <point x="384" y="470" type="curve" smooth="yes"/>
      <point x="526" y="470"/>
      <point x="609" y="381"/>
      <point x="572" y="239" type="curve" smooth="yes"/>
      <point x="568" y="223"/>
      <point x="562" y="207"/>
      <point x="557" y="191" type="curve"/>
    </contour>
    <contour>
      <point x="346" y="632" type="curve" smooth="yes"/>
      <point x="361" y="685"/>
      <point x="421" y="726"/>
      <point x="475" y="726" type="curve" smooth="yes"/>
      <point x="530" y="726"/>
      <point x="569" y="681"/>
      <point x="554" y="626" type="curve" smooth="yes"/>
      <point x="539" y="573"/>
      <point x="479" y="532"/>
      <point x="425" y="532" type="curve" smooth="yes"/>
      <point x="370" y="532"/>
      <point x="331" y="577"/>
    </contour>
  </outline>
</glyph>
<glyph name="Hcircumflex" format="2">
  <advance width="780"/>
  <unicode hex="0124"/>
  <outline>
    <contour>
      <point x="142" y="265" type="line"/>
      <point x="210" y="460" type="line"/>
      <point x="744" y="460" type="line"/>
      <point x="676" y="265" type="line"/>
    </contour>
    <contour>
      <point x="690" y="700" type="line"/>
      <point x="904" y="700" type="line"/>
      <point x="664" y="0" type="line"/>
      <point x="450" y="0" type="line"/>
    </contour>
    <contour>
      <point x="248" y="700" type="line"/>
      <point x="462" y="700" type="line"/>
      <point x="221" y="0" type="line"/>
      <point x="8" y="0" type="line"/>
    </contour>
    <contour>
      <point x="638" y="857" type="line"/>
      <point x="536" y="780" type="line"/>
      <point x="426" y="877" type="line"/>
      <point x="671" y="1010" type="line"/>
      <point x="840" y="863" type="line"/>
      <point x="686" y="778" type="line"/>
    </contour>
  </outline>
</glyph>
<glyph name="Hbar" format="2">
  <advance width="780"/>
  <unicode hex="0126"/>
  <outline>
    <contour>
      <point x="-10.2606" y="265.332" type="line"/>
      <point x="58.0151" y="459.697" type="line"/>
      <point x="596.325" y="459.668" type="line"/>
      <point x="528.05" y="265.303" type="line"/>
    </contour>
    <contour>
      <point x="537.718" y="699.805" type="line"/>
      <point x="756.047" y="699.776" type="line"/>
      <point x="515.899" y="0" type="line"/>
      <point x="297.569" y="0" type="line"/>
    </contour>
    <contour>
      <point x="95.4951" y="699.805" type="line"/>
      <point x="313.824" y="699.776" type="line"/>
      <point x="73.6765" y="0" type="line"/>
      <point x="-144.654" y="0" type="line"/>
    </contour>
    <contour>
      <point x="-23.4447" y="535.283" type="line"/>
      <point x="20.8018" y="659.742" type="line"/>
      <point x="803.796" y="659.717" type="line"/>
      <point x="759.549" y="535.258" type="line"/>
    </contour>
  </outline>
</glyph>
<glyph name="hbar" format="2">
  <advance width="559"/>
  <unicode hex="0127"/>
  <outline>
    <contour>
      <point x="298.839" y="779.773" type="line"/>
      <point x="31.2855" y="0" type="line"/>
      <point x="-163.523" y="0" type="line"/>
      <point x="104.032" y="779.8" type="line"/>
    </contour>
    <contour>
      <point x="221.717" y="280.48" type="line"/>
      <point x="227.81" y="300.508"/>
      <point x="240.773" y="335.889"/>
      <point x="210.14" y="343.544" type="curve" smooth="yes"/>
      <point x="174.875" y="352.356"/>
      <point x="144.777" y="304.488"/>
      <point x="129.161" y="281.499" type="curve"/>
      <point x="95.8795" y="282.515" type="line"/>
      <point x="128.96" y="380.868"/>
      <point x="192.16" y="477.968"/>
      <point x="307.117" y="480.767" type="curve" smooth="yes"/>
      <point x="416.31" y="483.425"/>
      <point x="442.349" y="402.813"/>
      <point x="416.862" y="309.731" type="curve"/>
      <point x="313.618" y="0" type="line"/>
      <point x="118.416" y="0" type="line"/>
    </contour>
    <contour>
      <point x="-8.19691" y="580.308" type="line"/>
      <point x="49.9456" y="744.716" type="line"/>
      <point x="384.296" y="744.691" type="line"/>
      <point x="326.154" y="580.284" type="line"/>
    </contour>
  </outline>
</glyph>
<glyph name="itilde" format="2">
  <advance width="269"/>
  <unicode hex="0129"/>
  <outline>
    <contour>
      <point x="146" y="460" type="line"/>
      <point x="329" y="460" type="line"/>
      <point x="171" y="0" type="line"/>
      <point x="-12" y="0" type="line"/>
    </contour>
    <contour>
      <point x="85" y="618" type="line"/>
      <point x="118" y="667"/>
      <point x="168" y="718"/>
      <point x="232" y="715" type="curve" smooth="yes"/>
      <point x="278" y="713"/>
      <point x="302" y="660"/>
      <point x="348" y="663" type="curve" smooth="yes"/>
      <point x="383" y="665"/>
      <point x="413" y="695"/>
      <point x="438" y="717" type="curve"/>
      <point x="498" y="620" type="line"/>
      <point x="458" y="577"/>
      <point x="395" y="527"/>
      <point x="332" y="532" type="curve" smooth="yes"/>
      <point x="287" y="536"/>
      <point x="257" y="594"/>
      <point x="211" y="586" type="curve" smooth="yes"/>
      <point x="182" y="581"/>
      <point x="164" y="558"/>
      <point x="147" y="537" type="curve"/>
    </contour>
  </outline>
</glyph>
<glyph name="ibreve" format="2">
  <advance width="269"/>
  <unicode hex="012D"/>
  <outline>
    <contour>
      <point x="146" y="460" type="line"/>
      <point x="329" y="460" type="line"/>
      <point x="171" y="0" type="line"/>
      <point x="-12" y="0" type="line"/>
    </contour>
    <contour>
      <point x="149" y="681" type="curve"/>
      <point x="256" y="681" type="line"/>
      <point x="258" y="660"/>
      <point x="256" y="636"/>
      <point x="283" y="632" type="curve" smooth="yes"/>
      <point x="312" y="628"/>
      <point x="336" y="661"/>
      <point x="352" y="680" type="curve"/>
      <point x="470" y="678" type="line"/>
      <point x="435" y="594"/>
      <point x="367" y="533"/>
      <point x="272" y="532" type="curve" smooth="yes"/>
      <point x="177" y="531"/>
      <point x="138" y="594"/>
    </contour>
  </outline>
</glyph>
<glyph name="iogonek" format="2">
  <advance width="269"/>
  <unicode hex="012F"/>
  <outline>
    <contour>
      <point x="189" y="625" type="curve" smooth="yes"/>
      <point x="204" y="678"/>
      <point x="263" y="719"/>
      <point x="317" y="719" type="curve" smooth="yes"/>
      <point x="372" y="719"/>
      <point x="412" y="674"/>
      <point x="397" y="619" type="curve" smooth="yes"/>
      <point x="382" y="566"/>
      <point x="322" y="525"/>
      <point x="268" y="525" type="curve" smooth="yes"/>
      <point x="213" y="525"/>
      <point x="174" y="570"/>
    </contour>
    <contour>
      <point x="146" y="460" type="line"/>
      <point x="329" y="460" type="line"/>
      <point x="171" y="0" type="line"/>
      <point x="-12" y="0" type="line"/>
    </contour>
    <contour>
      <point x="98" y="-99" type="curve"/>
      <point x="106" y="-183" type="line"/>
      <point x="73" y="-205"/>
      <point x="38" y="-221"/>
      <point x="-2" y="-220" type="curve" smooth="yes"/>
      <point x="-59" y="-218"/>
      <point x="-100" y="-177"/>
      <point x="-85" y="-118" type="curve" smooth="yes"/>
      <point x="-65" y="-41"/>
      <point x="27" y="-5"/>
      <point x="91" y="25" type="curve"/>
      <point x="132" y="0" type="line"/>
      <point x="99" y="-25"/>
      <point x="45" y="-48"/>
      <point x="31" y="-91" type="curve" smooth="yes"/>
      <point x="28" y="-102"/>
      <point x="27" y="-116"/>
      <point x="41" y="-119" type="curve" smooth="yes"/>
      <point x="58" y="-122"/>
      <point x="83" y="-106"/>
    </contour>
  </outline>
</glyph>
<glyph name="uni0136" format="2">
  <advance width="734"/>
  <unicode hex="0136"/>
  <outline>
    <contour>
      <point x="248" y="700" type="line"/>
      <point x="471" y="700" type="line"/>
      <point x="231" y="0" type="line"/>
      <point x="8" y="0" type="line"/>
    </contour>
    <contour>
      <point x="660" y="699" type="line"/>
      <point x="921" y="699" type="line"/>
      <point x="540" y="363" type="line"/>
      <point x="681" y="0" type="line"/>
      <point x="440" y="0" type="line"/>
      <point x="294" y="375" type="line"/>
    </contour>
    <contour>
      <point x="233" y="-62" type="line"/>
      <point x="419" y="-98" type="line"/>
      <point x="207" y="-342" type="line"/>
      <point x="62" y="-315" type="line"/>
    </contour>
  </outline>
</glyph>
<glyph name="uni0137" format="2">
  <advance width="620"/>
  <unicode hex="0137"/>
  <outline>
    <contour>
      <point x="256" y="780" type="line"/>
      <point x="437" y="780" type="line"/>
      <point x="170" y="0" type="line"/>
      <point x="-11" y="0" type="line"/>
    </contour>
    <contour>
      <point x="470" y="459" type="line"/>
      <point x="707" y="459" type="line"/>
      <point x="445" y="262" type="line"/>
      <point x="552" y="0" type="line"/>
      <point x="351" y="0" type="line"/>
      <point x="232" y="280" type="line"/>
    </contour>
    <contour>
      <point x="160" y="-62" type="line"/>
      <point x="345" y="-98" type="line"/>
      <point x="134" y="-342" type="line"/>
      <point x="-11" y="-315" type="line"/>
    </contour>
  </outline>
</glyph>
<glyph name="lcaron" format="2">
  <advance width="277"/>
  <unicode hex="013E"/>
  <outline>
    <contour>
      <point x="256" y="780" type="line"/>
      <point x="447" y="780" type="line"/>
      <point x="179" y="0" type="line"/>
      <point x="-11" y="0" type="line"/>
    </contour>
    <contour>
      <point x="566" y="778" type="line"/>
      <point x="751" y="742" type="line"/>
      <point x="540" y="498" type="line"/>
      <point x="395" y="525" type="line"/>
    </contour>
  </outline>
</glyph>
<glyph name="Ldot" format="2">
  <advance width="541"/>
  <unicode hex="013F"/>
  <outline>
    <contour>
      <point x="248" y="700" type="line"/>
      <point x="462" y="700" type="line"/>
      <point x="285" y="185" type="line"/>
      <point x="554" y="185" type="line"/>
      <point x="489" y="0" type="line"/>
      <point x="8" y="0" type="line"/>
    </contour>
    <contour>
      <point x="436" y="442" type="curve" smooth="yes"/>
      <point x="453" y="502"/>
      <point x="517" y="554"/>
      <point x="580" y="554" type="curve" smooth="yes"/>
      <point x="644" y="554"/>
      <point x="681" y="497"/>
      <point x="664" y="438" type="curve" smooth="yes"/>
      <point x="647" y="378"/>
      <point x="583" y="326"/>
      <point x="520" y="326" type="curve" smooth="yes"/>
      <point x="456" y="326"/>
      <point x="419" y="383"/>
    </contour>
  </outline>
</glyph>
<glyph name="Nacute" format="2">
  <advance width="757"/>
  <unicode hex="0143"/>
  <outline>
    <contour>
      <point x="676" y="700" type="line"/>
      <point x="880" y="700" type="line"/>
      <point x="630" y="-31" type="line"/>
      <point x="322" y="320" type="line"/>
      <point x="212" y="0" type="line"/>
      <point x="8" y="0" type="line"/>
      <point x="258" y="731" type="line"/>
      <point x="565" y="380" type="line"/>
    </contour>
    <contour>
      <point x="769" y="908" type="line"/>
      <point x="556" y="766" type="line"/>
      <point x="456" y="822" type="line"/>
      <point x="645" y="973" type="line"/>
    </contour>
  </outline>
</glyph>
<glyph name="ncaron" format="2">
  <advance width="569"/>
  <unicode hex="0148"/>
  <outline>
    <contour>
      <point x="337" y="460" type="line"/>
      <point x="179" y="0" type="line"/>
      <point x="-11" y="0" type="line"/>
      <point x="147" y="460" type="line"/>
    </contour>
    <contour>
      <point x="372" y="280" type="line"/>
      <point x="378" y="302"/>
      <point x="388" y="336"/>
      <point x="356" y="344" type="curve" smooth="yes"/>
      <point x="320" y="352"/>
      <point x="291" y="304"/>
      <point x="275" y="281" type="curve"/>
      <point x="244" y="272" type="line"/>
      <point x="279" y="370"/>
      <point x="343" y="469"/>
      <point x="459" y="471" type="curve" smooth="yes"/>
      <point x="567" y="473"/>
      <point x="598" y="394"/>
      <point x="572" y="300" type="curve"/>
      <point x="471" y="0" type="line"/>
      <point x="271" y="0" type="line"/>
    </contour>
    <contour>
      <point x="454" y="684" type="line"/>
      <point x="556" y="761" type="line"/>
      <point x="666" y="664" type="line"/>
      <point x="421" y="531" type="line"/>
      <point x="252" y="678" type="line"/>
      <point x="406" y="763" type="line"/>
    </contour>
  </outline>
</glyph>
<glyph name="oe" format="2">
  <advance width="846"/>
  <unicode hex="0153"/>
  <outline>
    <contour>
      <point x="655" y="250" type="line" smooth="yes"/>
      <point x="664" y="279"/>
      <point x="685" y="341"/>
      <point x="638" y="348" type="curve" smooth="yes"/>
      <point x="588" y="356"/>
      <point x="549" y="296"/>
      <point x="530" y="259" type="curve" smooth="yes"/>
      <point x="516" y="230" type="line"/>
      <point x="501" y="194"/>
      <point x="483" y="122"/>
      <point x="541" y="117" type="curve" smooth="yes"/>
      <point x="581" y="113"/>
      <point x="618" y="143"/>
      <point x="647" y="165" type="curve"/>
      <point x="814" y="133" type="line"/>
      <point x="752" y="57"/>
      <point x="658" y="-11"/>
      <point x="555" y="-10" type="curve" smooth="yes"/>
      <point x="422" y="-9"/>
      <point x="395" y="124"/>
      <point x="426" y="230" type="curve" smooth="yes"/>
      <point x="431" y="247"/>
      <point x="437" y="263"/>
      <point x="444" y="279" type="curve" smooth="yes"/>
      <point x="492" y="380"/>
      <point x="596" y="471"/>
      <point x="713" y="470" type="curve" smooth="yes"/>
      <point x="842" y="469"/>
      <point x="873" y="338"/>
      <point x="844" y="234" type="curve" smooth="yes"/>
      <point x="840" y="220"/>
      <point x="834" y="205"/>
      <point x="829" y="191" type="curve"/>
      <point x="649" y="232" type="line"/>
    </contour>
    <contour>
      <point x="465" y="191" type="line"/>
      <point x="494" y="283" type="line"/>
      <point x="840" y="283" type="line"/>
      <point x="828" y="190" type="line"/>
    </contour>
    <contour>
      <point x="54" y="231" type="curve" smooth="yes"/>
      <point x="91" y="354"/>
      <point x="207" y="471"/>
      <point x="342" y="470" type="curve" smooth="yes"/>
      <point x="477" y="469"/>
      <point x="498" y="337"/>
      <point x="466" y="230" type="curve" smooth="yes"/>
      <point x="430" y="113"/>
      <point x="335" y="-8"/>
      <point x="202" y="-9" type="curve" smooth="yes"/>
      <point x="68" y="-10"/>
      <point x="20" y="117"/>
    </contour>
    <contour>
      <point x="238" y="229" type="curve" smooth="yes"/>
      <point x="225" y="195"/>
      <point x="227" y="149"/>
      <point x="272" y="146" type="curve" smooth="yes"/>
      <point x="321" y="143"/>
      <point x="365" y="189"/>
      <point x="381" y="231" type="curve" smooth="yes"/>
      <point x="395" y="266"/>
      <point x="394" y="312"/>
      <point x="347" y="314" type="curve" smooth="yes"/>
      <point x="299" y="316"/>
      <point x="254" y="270"/>
    </contour>
  </outline>
</glyph>
<glyph name="Racute" format="2">
  <advance width="658"/>
  <unicode hex="0154"/>
  <outline>
    <contour>
      <point x="310" y="300" type="line"/>
      <point x="515" y="300" type="line"/>
      <point x="600" y="0" type="line"/>
      <point x="367" y="0" type="line"/>
    </contour>
    <contour>
      <point x="248" y="700" type="line"/>
      <point x="462" y="700" type="line"/>
      <point x="221" y="0" type="line"/>
      <point x="8" y="0" type="line"/>
    </contour>
    <contour>
      <point x="320" y="516" type="line"/>
      <point x="382" y="700" type="line"/>
      <point x="516" y="700" type="line" smooth="yes"/>
      <point x="659" y="696"/>
      <point x="770" y="614"/>
      <point x="725" y="460" type="curve" smooth="yes"/>
      <point x="679" y="305"/>
      <point x="530" y="224"/>
      <point x="376" y="220" type="curve" smooth="yes"/>
      <point x="216" y="220" type="line"/>
      <point x="275" y="385" type="line"/>
      <point x="391" y="385" type="line"/>
      <point x="433" y="388"/>
      <point x="485" y="407"/>
      <point x="501" y="451" type="curve" smooth="yes"/>
      <point x="515" y="490"/>
      <point x="492" y="510"/>
      <point x="455" y="514" type="curve"/>
    </contour>
    <contour>
      <point x="744" y="923" type="line"/>
      <point x="531" y="781" type="line"/>
      <point x="431" y="837" type="line"/>
      <point x="620" y="988" type="line"/>
    </contour>
  </outline>
</glyph>
<glyph name="scedilla" format="2">
  <advance width="459"/>
  <unicode hex="015F"/>
  <outline>
    <contour>
      <point x="72" y="181" type="line"/>
      <point x="109" y="149"/>
      <point x="156" y="102"/>
      <point x="210" y="110" type="curve" smooth="yes"/>
      <point x="222" y="112"/>
      <point x="246" y="122"/>
      <point x="250" y="136" type="curve" smooth="yes"/>
      <point x="259" y="169"/>
      <point x="207" y="177"/>
      <point x="187" y="185" type="curve" smooth="yes"/>
      <point x="123" y="211"/>
      <point x="85" y="265"/>
      <point x="106" y="335" type="curve" smooth="yes"/>
      <point x="133" y="426"/>
      <point x="231" y="468"/>
      <point x="319" y="469" type="curve" smooth="yes"/>
      <point x="390" y="470"/>
      <point x="454" y="443"/>
      <point x="516" y="412" type="curve"/>
      <point x="432" y="284" type="line"/>
      <point x="402" y="315"/>
      <point x="367" y="348"/>
      <point x="321" y="346" type="curve" smooth="yes"/>
      <point x="308" y="346"/>
      <point x="279" y="339"/>
      <point x="273" y="325" type="curve" smooth="yes"/>
      <point x="259" y="291"/>
      <point x="332" y="279"/>
      <point x="351" y="271" type="curve" smooth="yes"/>
      <point x="412" y="246"/>
      <point x="451" y="197"/>
      <point x="433" y="129" type="curve" smooth="yes"/>
      <point x="407" y="29"/>
      <point x="315" y="-22"/>
      <point x="217" y="-24" type="curve" smooth="yes"/>
      <point x="129" y="-26"/>
      <point x="49" y="5"/>
      <point x="-26" y="49" type="curve"/>
    </contour>
    <contour>
      <point x="172" y="65" type="line"/>
      <point x="320" y="60" type="line"/>
      <point x="171" y="-68" type="line"/>
      <point x="185" y="-65"/>
      <point x="200" y="-62"/>
      <point x="214" y="-63" type="curve" smooth="yes"/>
      <point x="273" y="-67"/>
      <point x="302" y="-121"/>
      <point x="286" y="-175" type="curve" smooth="yes"/>
      <point x="265" y="-247"/>
      <point x="186" y="-286"/>
      <point x="116" y="-290" type="curve" smooth="yes"/>
      <point x="57" y="-293"/>
      <point x="3" y="-274"/>
      <point x="-49" y="-247" type="curve"/>
      <point x="22" y="-167" type="line"/>
      <point x="46" y="-180"/>
      <point x="72" y="-193"/>
      <point x="101" y="-192" type="curve" smooth="yes"/>
      <point x="119" y="-191"/>
      <point x="171" y="-178"/>
      <point x="174" y="-155" type="curve" smooth="yes"/>
      <point x="177" y="-134"/>
      <point x="140" y="-130"/>
      <point x="128" y="-129" type="curve" smooth="yes"/>
      <point x="94" y="-127"/>
      <point x="59" y="-135"/>
      <point x="25" y="-141" type="curve"/>
    </contour>
  </outline>
</glyph>
<glyph name="tcaron" format="2">
  <advance width="531"/>
  <unicode hex="0165"/>
  <outline>
    <contour>
      <point x="105" y="460" type="line"/>
      <point x="446" y="460" type="line"/>
      <point x="391" y="305" type="line"/>
      <point x="50" y="305" type="line"/>
    </contour>
    <contour>
      <point x="239" y="620" type="line"/>
      <point x="420" y="620" type="line"/>
      <point x="207" y="0" type="line"/>
      <point x="26" y="0" type="line"/>
    </contour>
    <contour>
      <point x="609" y="770" type="line"/>
      <point x="794" y="734" type="line"/>
      <point x="583" y="490" type="line"/>
      <point x="438" y="517" type="line"/>
    </contour>
  </outline>
</glyph>
<glyph name="umacron" format="2">
  <advance width="569"/>
  <unicode hex="016B"/>
  <outline>
    <contour>
      <point x="280" y="0" type="line"/>
      <point x="439" y="460" type="line"/>
      <point x="629" y="460" type="line"/>
      <point x="471" y="0" type="line"/>
    </contour>
    <contour>
      <point x="246" y="180" type="line"/>
      <point x="240" y="158"/>
      <point x="229" y="124"/>
      <point x="261" y="116" type="curve" smooth="yes"/>
      <point x="297" y="108"/>
      <point x="327" y="156"/>
      <point x="343" y="179" type="curve"/>
      <point x="374" y="188" type="line"/>
      <point x="339" y="90"/>
      <point x="274" y="-9"/>
      <point x="158" y="-11" type="curve" smooth="yes"/>
      <point x="50" y="-13"/>
      <point x="20" y="66"/>
      <point x="46" y="160" type="curve"/>
      <point x="147" y="460" type="line"/>
      <point x="347" y="460" type="line"/>
    </contour>
    <contour>
      <point x="230.472" y="531" type="line"/>
      <point x="282.472" y="696" type="line"/>
      <point x="651.472" y="696" type="line"/>
      <point x="599.472" y="531" type="line"/>
    </contour>
  </outline>
</glyph>
<glyph name="Ydieresis" format="2">
  <advance width="677"/>
  <unicode hex="0178"/>
  <outline>
    <contour>
      <point x="331" y="898" type="curve" smooth="yes"/>
      <point x="346" y="951"/>
      <point x="406" y="992"/>
      <point x="460" y="992" type="curve" smooth="yes"/>
      <point x="515" y="992"/>
      <point x="554" y="947"/>
      <point x="539" y="892" type="curve" smooth="yes"/>
      <point x="524" y="839"/>
      <point x="464" y="798"/>
      <point x="410" y="798" type="curve" smooth="yes"/>
      <point x="355" y="798"/>
      <point x="316" y="843"/>
    </contour>
    <contour>
      <point x="641" y="898" type="curve" smooth="yes"/>
      <point x="656" y="951"/>
      <point x="716" y="992"/>
      <point x="770" y="992" type="curve" smooth="yes"/>
      <point x="825" y="992"/>
      <point x="864" y="947"/>
      <point x="849" y="892" type="curve" smooth="yes"/>
      <point x="834" y="839"/>
      <point x="774" y="798"/>
      <point x="720" y="798" type="curve" smooth="yes"/>
      <point x="665" y="798"/>
      <point x="626" y="843"/>
    </contour>
    <contour>
      <point x="620" y="699" type="line"/>
      <point x="876" y="699" type="line"/>
      <point x="485" y="265" type="line"/>
      <point x="394" y="0" type="line"/>
      <point x="175" y="0" type="line"/>
      <point x="274" y="285" type="line"/>
      <point x="183" y="700" type="line"/>
      <point x="418" y="700" type="line"/>
      <point x="442" y="481" type="line"/>
    </contour>
  </outline>
</glyph>
<glyph name="florin" format="2">
  <advance width="600"/>
  <unicode hex="0192"/>
  <outline>
    <contour>
      <point x="29" y="-200" type="curve" smooth="yes"/>
      <point x="-22" y="-200"/>
      <point x="-58" y="-183"/>
      <point x="-103" y="-141" type="curve"/>
      <point x="10" y="-7" type="line"/>
      <point x="22" y="-25"/>
      <point x="33" y="-32"/>
      <point x="47" y="-32" type="curve" smooth="yes"/>
      <point x="72" y="-32"/>
      <point x="99" y="-9"/>
      <point x="112" y="25" type="curve" smooth="yes"/>
      <point x="222" y="305" type="line"/>
      <point x="150" y="305" type="line"/>
      <point x="213" y="460" type="line"/>
      <point x="282" y="460" type="line"/>
      <point x="347" y="631" type="line" smooth="yes"/>
      <point x="389" y="733"/>
      <point x="488" y="800"/>
      <point x="594" y="799" type="curve" smooth="yes"/>
      <point x="645" y="799"/>
      <point x="681" y="782"/>
      <point x="726" y="740" type="curve"/>
      <point x="614" y="606" type="line"/>
      <point x="602" y="624"/>
      <point x="589" y="631"/>
      <point x="575" y="631" type="curve" smooth="yes"/>
      <point x="550" y="631"/>
      <point x="525" y="608"/>
      <point x="512" y="574" type="curve" smooth="yes"/>
      <point x="466" y="460" type="line"/>
      <point x="563" y="460" type="line"/>
      <point x="502" y="305" type="line"/>
      <point x="406" y="305" type="line"/>
      <point x="276" y="-32" type="line" smooth="yes"/>
      <point x="239" y="-132"/>
      <point x="137" y="-201"/>
    </contour>
  </outline>
</glyph>
<glyph name="uni021A" format="2">
  <advance width="583"/>
  <unicode hex="021A"/>
  <outline>
    <contour>
      <point x="114" y="505" type="line"/>
      <point x="182" y="700" type="line"/>
      <point x="772" y="700" type="line"/>
      <point x="704" y="505" type="line"/>
      <point x="517" y="505" type="line"/>
      <point x="344" y="0" type="line"/>
      <point x="130" y="0" type="line"/>
      <point x="303" y="505" type="line"/>
    </contour>
    <contour>
      <point x="160.229" y="-60" type="line"/>
      <point x="345.229" y="-96" type="line"/>
      <point x="134.229" y="-340" type="line"/>
      <point x="-10.7715" y="-313" type="line"/>
    </contour>
  </outline>
</glyph>
<glyph name="uni021B" format="2">
  <advance width="343"/>
  <unicode hex="021B"/>
  <outline>
    <contour>
      <point x="105" y="460" type="line"/>
      <point x="446" y="460" type="line"/>
      <point x="391" y="305" type="line"/>
      <point x="50" y="305" type="line"/>
    </contour>
    <contour>
      <point x="239" y="620" type="line"/>
      <point x="420" y="620" type="line"/>
      <point x="207" y="0" type="line"/>
      <point x="26" y="0" type="line"/>
    </contour>
    <contour>
      <point x="39.7285" y="-60" type="line"/>
      <point x="224.729" y="-96" type="line"/>
      <point x="13.7285" y="-340" type="line"/>
      <point x="-131.271" y="-313" type="line"/>
    </contour>
  </outline>
</glyph>
<glyph name="uni0237" format="2">
  <advance width="268"/>
  <unicode hex="0237"/>
  <outline>
    <contour>
      <point x="-123" y="-56" type="line"/>
      <point x="-115" y="-67"/>
      <point x="-106" y="-80"/>
      <point x="-90" y="-81" type="curve" smooth="yes"/>
      <point x="-60" y="-82"/>
      <point x="-33" y="-48"/>
      <point x="-21" y="-24" type="curve"/>
      <point x="147" y="460" type="line"/>
      <point x="328" y="460" type="line"/>
      <point x="145" y="-81" type="line" smooth="yes"/>
      <point x="107" y="-182"/>
      <point x="17" y="-250"/>
      <point x="-93" y="-249" type="curve" smooth="yes"/>
      <point x="-148" y="-249"/>
      <point x="-189" y="-226"/>
      <point x="-229" y="-190" type="curve"/>
    </contour>
  </outline>
</glyph>
<glyph name="tilde" format="2">
  <advance width="498"/>
  <unicode hex="02DC"/>
  <outline>
    <contour>
      <point x="218" y="648" type="line"/>
      <point x="250" y="697"/>
      <point x="299" y="749"/>
      <point x="363" y="746" type="curve" smooth="yes"/>
      <point x="409" y="744"/>
      <point x="436" y="691"/>
      <point x="482" y="694" type="curve" smooth="yes"/>
      <point x="517" y="696"/>
      <point x="544" y="726"/>
      <point x="568" y="748" type="curve"/>
      <point x="631" y="652" type="line"/>
      <point x="592" y="608"/>
      <point x="531" y="558"/>
      <point x="468" y="563" type="curve" smooth="yes"/>
      <point x="422" y="567"/>
      <point x="391" y="625"/>
      <point x="344" y="617" type="curve" smooth="yes"/>
      <point x="315" y="612"/>
      <point x="299" y="589"/>
      <point x="283" y="568" type="curve"/>
    </contour>
  </outline>
</glyph>
<glyph name="uni0308" format="2">
  <unicode hex="0308"/>
  <outline>
    <contour>
      <point x="218" y="517" type="curve" smooth="yes"/>
      <point x="153" y="517"/>
      <point x="110" y="556"/>
      <point x="110" y="615" type="curve" smooth="yes"/>
      <point x="110" y="674"/>
      <point x="153" y="713"/>
      <point x="218" y="713" type="curve" smooth="yes"/>
      <point x="283" y="713"/>
      <point x="326" y="674"/>
      <point x="326" y="615" type="curve" smooth="yes"/>
      <point x="326" y="556"/>
      <point x="283" y="517"/>
    </contour>
    <contour>
      <point x="488" y="517" type="curve" smooth="yes"/>
      <point x="423" y="517"/>
      <point x="380" y="556"/>
      <point x="380" y="615" type="curve" smooth="yes"/>
      <point x="380" y="674"/>
      <point x="423" y="713"/>
      <point x="488" y="713" type="curve" smooth="yes"/>
      <point x="553" y="713"/>
      <point x="596" y="674"/>
      <point x="596" y="615" type="curve" smooth="yes"/>
      <point x="596" y="556"/>
      <point x="553" y="517"/>
    </contour>
  </outline>
</glyph>
<glyph name="uni0326" format="2">
  <unicode hex="0326"/>
  <outline>
    <contour>
      <point x="-39" y="-208" type="line"/>
      <point x="-145" y="-164" type="line"/>
      <point x="-5" y="-22" type="line"/>
      <point x="129" y="-78" type="line"/>
    </contour>
  </outline>
</glyph>
<glyph name="uni0327" format="2">
  <unicode hex="0327"/>
  <outline>
    <contour>
      <point x="-23" y="-213" type="curve" smooth="yes"/>
      <point x="-71" y="-213"/>
      <point x="-122" y="-202"/>
      <point x="-152" y="-184" type="curve"/>
      <point x="-95" y="-112" type="line"/>
      <point x="-76" y="-122"/>
      <point x="-40" y="-130"/>
      <point x="-12" y="-130" type="curve" smooth="yes"/>
      <point x="11" y="-130"/>
      <point x="26" y="-118"/>
      <point x="33" y="-98" type="curve" smooth="yes"/>
      <point x="39" y="-81"/>
      <point x="28" y="-74"/>
      <point x="-2" y="-74" type="curve" smooth="yes"/>
      <point x="-20" y="-74"/>
      <point x="-44" y="-73"/>
      <point x="-71" y="-75" type="curve"/>
      <point x="42" y="78" type="line"/>
      <point x="150" y="73" type="line"/>
      <point x="57" y="-48" type="line"/>
      <point x="-17" y="-28" type="line"/>
      <point x="13" y="-28"/>
      <point x="59" y="-20"/>
      <point x="99" y="-20" type="curve" smooth="yes"/>
      <point x="142" y="-20"/>
      <point x="162" y="-55"/>
      <point x="146" y="-102" type="curve" smooth="yes"/>
      <point x="125" y="-166"/>
      <point x="47" y="-213"/>
    </contour>
  </outline>
</glyph>
<glyph name="uni0394" format="2">
  <advance width="600"/>
  <unicode hex="0394"/>
  <outline>
    <contour>
      <point x="-72" y="0" type="line"/>
      <point x="491" y="0" type="line"/>
      <point x="478" y="800" type="line"/>
    </contour>
    <contour>
      <point x="173" y="139" type="line"/>
      <point x="355" y="432" type="line"/>
      <point x="340" y="139" type="line"/>
    </contour>
  </outline>
</glyph>
<glyph name="uni0401" format="2">
  <advance width="517"/>
  <unicode hex="0401"/>
  <outline>
    <contour>
      <point x="148" y="0" type="line"/>
      <point x="209" y="175" type="line"/>
      <point x="553" y="175" type="line"/>
      <point x="492" y="0" type="line"/>
    </contour>
    <contour>
      <point x="327" y="525" type="line"/>
      <point x="389" y="700" type="line"/>
      <point x="732" y="700" type="line"/>
      <point x="671" y="525" type="line"/>
    </contour>
    <contour>
      <point x="242" y="275" type="line"/>
      <point x="302" y="445" type="line"/>
      <point x="627" y="445" type="line"/>
      <point x="567" y="275" type="line"/>
    </contour>
    <contour>
      <point x="245" y="700" type="line"/>
      <point x="454" y="700" type="line"/>
      <point x="214" y="0" type="line"/>
      <point x="5" y="0" type="line"/>
    </contour>
    <contour>
      <point x="571" y="882" type="curve" smooth="yes"/>
      <point x="584" y="935"/>
      <point x="642" y="975"/>
      <point x="696" y="975" type="curve" smooth="yes"/>
      <point x="752" y="975"/>
      <point x="795" y="931"/>
      <point x="781" y="874" type="curve" smooth="yes"/>
      <point x="768" y="821"/>
      <point x="710" y="781"/>
      <point x="656" y="781" type="curve" smooth="yes"/>
      <point x="600" y="781"/>
      <point x="557" y="825"/>
    </contour>
    <contour>
      <point x="317" y="882" type="curve" smooth="yes"/>
      <point x="330" y="935"/>
      <point x="388" y="975"/>
      <point x="442" y="975" type="curve" smooth="yes"/>
      <point x="498" y="975"/>
      <point x="541" y="931"/>
      <point x="527" y="874" type="curve" smooth="yes"/>
      <point x="514" y="821"/>
      <point x="456" y="781"/>
      <point x="402" y="781" type="curve" smooth="yes"/>
      <point x="346" y="781"/>
      <point x="303" y="825"/>
    </contour>
  </outline>
</glyph>
<glyph name="uni0403" format="2">
  <advance width="517"/>
  <unicode hex="0403"/>
  <outline>
    <contour>
      <point x="255" y="700" type="line"/>
      <point x="699" y="700" type="line"/>
      <point x="631" y="505" type="line"/>
      <point x="406" y="505" type="line"/>
      <point x="233" y="0" type="line"/>
      <point x="15" y="0" type="line"/>
    </contour>
    <contour>
      <point x="728" y="920" type="line"/>
      <point x="519" y="781" type="line"/>
      <point x="413" y="841" type="line"/>
      <point x="598" y="989" type="line"/>
    </contour>
  </outline>
</glyph>
<glyph name="uni040D" format="2">
  <advance width="757"/>
  <unicode hex="040D"/>
  <outline>
    <contour>
      <point x="797" y="466" type="line"/>
      <point x="-15" y="-56" type="line"/>
      <point x="91" y="234" type="line"/>
      <point x="904" y="757" type="line"/>
    </contour>
    <contour>
      <point x="454" y="700" type="line"/>
      <point x="268" y="154" type="line"/>
      <point x="-15" y="-56" type="line"/>
      <point x="245" y="700" type="line"/>
    </contour>
    <contour>
      <point x="904" y="757" type="line"/>
      <point x="642" y="0" type="line"/>
      <point x="433" y="0" type="line"/>
      <point x="617" y="536" type="line"/>
    </contour>
    <contour>
      <point x="492" y="924" type="line"/>
      <point x="630" y="977" type="line"/>
      <point x="724" y="805" type="line"/>
      <point x="620" y="764" type="line"/>
    </contour>
  </outline>
</glyph>
<glyph name="uni0411" format="2">
  <advance width="703"/>
  <unicode hex="0411"/>
  <outline>
    <contour>
      <point x="163" y="276" type="line"/>
      <point x="213" y="445" type="line"/>
      <point x="522" y="445" type="line" smooth="yes"/>
      <point x="644" y="445"/>
      <point x="726" y="347"/>
      <point x="693" y="224" type="curve" smooth="yes"/>
      <point x="659" y="97"/>
      <point x="535" y="0"/>
      <point x="406" y="0" type="curve" smooth="yes"/>
      <point x="59" y="0" type="line"/>
      <point x="120" y="175" type="line"/>
      <point x="386" y="175" type="line" smooth="yes"/>
      <point x="423" y="175"/>
      <point x="458" y="189"/>
      <point x="475" y="227" type="curve" smooth="yes"/>
      <point x="490" y="260"/>
      <point x="465" y="274"/>
      <point x="436" y="274" type="curve" smooth="yes"/>
    </contour>
    <contour>
      <point x="255" y="700" type="line"/>
      <point x="807" y="700" type="line"/>
      <point x="746" y="525" type="line"/>
      <point x="418" y="525" type="line"/>
      <point x="238" y="0" type="line"/>
      <point x="15" y="0" type="line"/>
    </contour>
  </outline>
</glyph>
<glyph name="uni0413" format="2">
  <advance width="517"/>
  <unicode hex="0413"/>
  <outline>
    <contour>
      <point x="255" y="700" type="line"/>
      <point x="699" y="700" type="line"/>
      <point x="631" y="505" type="line"/>
      <point x="406" y="505" type="line"/>
      <point x="233" y="0" type="line"/>
      <point x="15" y="0" type="line"/>
    </contour>
  </outline>
</glyph>
<glyph name="uni041D" format="2">
  <advance width="782"/>
  <unicode hex="041D"/>
  <outline>
    <contour>
      <point x="140" y="265" type="line"/>
      <point x="208" y="460" type="line"/>
      <point x="746" y="460" type="line"/>
      <point x="678" y="265" type="line"/>
    </contour>
    <contour>
      <point x="688" y="700" type="line"/>
      <point x="906" y="700" type="line"/>
      <point x="666" y="0" type="line"/>
      <point x="448" y="0" type="line"/>
    </contour>
    <contour>
      <point x="245" y="700" type="line"/>
      <point x="464" y="700" type="line"/>
      <point x="224" y="0" type="line"/>
      <point x="5" y="0" type="line"/>
    </contour>
  </outline>
</glyph>
<glyph name="uni042C" format="2">
  <advance width="628"/>
  <unicode hex="042C"/>
  <outline>
    <contour>
      <point x="245" y="700" type="line"/>
      <point x="464" y="700" type="line"/>
      <point x="224" y="0" type="line"/>
      <point x="5" y="0" type="line"/>
    </contour>
    <contour>
      <point x="249" y="306" type="line"/>
      <point x="304" y="480" type="line"/>
      <point x="416" y="480" type="line" smooth="yes"/>
      <point x="562" y="476"/>
      <point x="677" y="397"/>
      <point x="633" y="239" type="curve" smooth="yes"/>
      <point x="589" y="81"/>
      <point x="445" y="4"/>
      <point x="289" y="0" type="curve" smooth="yes"/>
      <point x="138" y="0" type="line"/>
      <point x="201" y="174" type="line"/>
      <point x="314" y="175" type="line" smooth="yes"/>
      <point x="358" y="175"/>
      <point x="410" y="198"/>
      <point x="428" y="242" type="curve" smooth="yes"/>
      <point x="443" y="280"/>
      <point x="424" y="303"/>
      <point x="387" y="304" type="curve" smooth="yes"/>
    </contour>
  </outline>
</glyph>
<glyph name="uni042D" format="2">
  <advance width="668"/>
  <unicode hex="042D"/>
  <outline>
    <contour>
      <point x="161" y="265" type="line"/>
      <point x="221" y="435" type="line"/>
      <point x="555" y="435" type="line"/>
      <point x="495" y="265" type="line"/>
    </contour>
    <contour>
      <point x="502" y="350" type="curve" smooth="yes"/>
      <point x="541" y="442"/>
      <point x="481" y="518"/>
      <point x="385" y="521" type="curve" smooth="yes"/>
      <point x="308" y="523"/>
      <point x="233" y="488"/>
      <point x="164" y="458" type="curve"/>
      <point x="215" y="653" type="line"/>
      <point x="281" y="693"/>
      <point x="354" y="720"/>
      <point x="432" y="720" type="curve" smooth="yes"/>
      <point x="645" y="721"/>
      <point x="770" y="554"/>
      <point x="710" y="350" type="curve" smooth="yes"/>
      <point x="647" y="136"/>
      <point x="440" y="-21"/>
      <point x="216" y="-20" type="curve" smooth="yes"/>
      <point x="142" y="-20"/>
      <point x="80" y="6"/>
      <point x="20" y="49" type="curve"/>
      <point x="73" y="243" type="line"/>
      <point x="119" y="203"/>
      <point x="169" y="177"/>
      <point x="232" y="178" type="curve" smooth="yes"/>
      <point x="339" y="179"/>
      <point x="460" y="250"/>
    </contour>
  </outline>
</glyph>
<glyph name="uni0433" format="2">
  <advance width="352"/>
  <unicode hex="0433"/>
  <outline>
    <contour>
      <point x="145" y="460" type="line"/>
      <point x="462" y="460" type="line"/>
      <point x="408" y="305" type="line"/>
      <point x="282" y="305" type="line"/>
      <point x="176" y="0" type="line"/>
      <point x="-14" y="0" type="line"/>
    </contour>
  </outline>
</glyph>
<glyph name="uni043A" format="2">
  <advance width="604"/>
  <unicode hex="043A"/>
  <outline>
    <contour>
      <point x="145" y="460" type="line"/>
      <point x="330" y="460" type="line"/>
      <point x="172" y="0" type="line"/>
      <point x="-14" y="0" type="line"/>
    </contour>
    <contour>
      <point x="464" y="459" type="line"/>
      <point x="712" y="459" type="line"/>
      <point x="445" y="257" type="line"/>
      <point x="550" y="0" type="line"/>
      <point x="353" y="0" type="line"/>
      <point x="233" y="284" type="line"/>
    </contour>
  </outline>
</glyph>
<glyph name="uni043B" format="2">
  <advance width="623"/>
  <unicode hex="043B"/>
  <outline>
    <contour>
      <point x="658" y="460" type="line"/>
      <point x="499" y="0" type="line"/>
      <point x="314" y="0" type="line"/>
      <point x="413" y="285" type="line"/>
      <point x="302" y="284" type="line"/>
      <point x="260" y="159" type="line" smooth="yes"/>
      <point x="211" y="23"/>
      <point x="87" y="5"/>
      <point x="-42" y="1" type="curve"/>
      <point x="5" y="171" type="line"/>
      <point x="43" y="175"/>
      <point x="71" y="184"/>
      <point x="91" y="221" type="curve"/>
      <point x="176" y="460" type="line"/>
    </contour>
  </outline>
</glyph>
<glyph name="uni043F" format="2">
  <advance width="569"/>
  <unicode hex="043F"/>
  <outline>
    <contour>
      <point x="631" y="460" type="line"/>
      <point x="473" y="0" type="line"/>
      <point x="287" y="0" type="line"/>
      <point x="390" y="295" type="line"/>
      <point x="274" y="295" type="line"/>
      <point x="172" y="0" type="line"/>
      <point x="-14" y="0" type="line"/>
      <point x="145" y="460" type="line"/>
    </contour>
  </outline>
</glyph>
<glyph name="uni0444" format="2">
  <advance width="673"/>
  <unicode hex="0444"/>
  <outline>
    <contour>
      <point x="384" y="560" type="line"/>
      <point x="565" y="560" type="line"/>
      <point x="338" y="-100" type="line"/>
      <point x="157" y="-100" type="line"/>
    </contour>
    <contour>
      <point x="48" y="231" type="curve" smooth="yes"/>
      <point x="92" y="396"/>
      <point x="267" y="471"/>
      <point x="425" y="471" type="curve" smooth="yes"/>
      <point x="568" y="471"/>
      <point x="719" y="395"/>
      <point x="674" y="229" type="curve" smooth="yes"/>
      <point x="630" y="64"/>
      <point x="456" y="-10"/>
      <point x="298" y="-10" type="curve" smooth="yes"/>
      <point x="155" y="-10"/>
      <point x="3" y="65"/>
    </contour>
    <contour>
      <point x="216" y="229" type="curve" smooth="yes"/>
      <point x="184" y="156"/>
      <point x="262" y="146"/>
      <point x="316" y="146" type="curve" smooth="yes"/>
      <point x="386" y="145"/>
      <point x="475" y="158"/>
      <point x="507" y="231" type="curve" smooth="yes"/>
      <point x="539" y="304"/>
      <point x="460" y="315"/>
      <point x="406" y="315" type="curve" smooth="yes"/>
      <point x="336" y="316"/>
      <point x="248" y="302"/>
    </contour>
  </outline>
</glyph>
<glyph name="uni0445" format="2">
  <advance width="564"/>
  <unicode hex="0445"/>
  <outline>
    <contour>
      <point x="452" y="460" type="line"/>
      <point x="672" y="460" type="line"/>
      <point x="415" y="228" type="line"/>
      <point x="526" y="0" type="line"/>
      <point x="332" y="0" type="line"/>
      <point x="281" y="115" type="line"/>
      <point x="185" y="0" type="line"/>
      <point x="-44" y="0" type="line"/>
      <point x="220" y="254" type="line"/>
      <point x="121" y="460" type="line"/>
      <point x="324" y="460" type="line"/>
      <point x="358" y="367" type="line"/>
    </contour>
  </outline>
</glyph>
<glyph name="uni0447" format="2">
  <advance width="550"/>
  <unicode hex="0447"/>
  <outline>
    <contour>
      <point x="211" y="102" type="line"/>
      <point x="304" y="254" type="line"/>
      <point x="404" y="255" type="line"/>
      <point x="349" y="102" type="line"/>
    </contour>
    <contour>
      <point x="408" y="460" type="line"/>
      <point x="603" y="460" type="line"/>
      <point x="445" y="0" type="line"/>
      <point x="250" y="0" type="line"/>
    </contour>
    <contour>
      <point x="339" y="459" type="line"/>
      <point x="282" y="307" type="line" smooth="yes"/>
      <point x="268" y="270"/>
      <point x="284" y="254"/>
      <point x="304" y="254" type="curve"/>
      <point x="211" y="102" type="line"/>
      <point x="79" y="102"/>
      <point x="68" y="216"/>
      <point x="101" y="328" type="curve" smooth="yes"/>
      <point x="145" y="460" type="line"/>
    </contour>
  </outline>
</glyph>
<glyph name="uni0449" format="2">
  <advance width="856"/>
  <unicode hex="0449"/>
  <outline>
    <contour>
      <point x="500" y="155" type="line"/>
      <point x="589" y="155" type="line"/>
      <point x="695" y="460" type="line"/>
      <point x="881" y="460" type="line"/>
      <point x="776" y="155" type="line"/>
      <point x="851" y="155" type="line"/>
      <point x="760" y="-110" type="line"/>
      <point x="574" y="-110" type="line"/>
      <point x="614" y="0" type="line"/>
      <point x="-13" y="0" type="line"/>
      <point x="145" y="460" type="line"/>
      <point x="330" y="460" type="line"/>
      <point x="224" y="155" type="line"/>
      <point x="315" y="155" type="line"/>
      <point x="421" y="460" type="line"/>
      <point x="606" y="460" type="line"/>
    </contour>
  </outline>
</glyph>
<glyph name="uni044F" format="2">
  <advance width="548"/>
  <unicode hex="044F"/>
  <outline>
    <contour>
      <point x="175" y="0" type="line"/>
      <point x="-38" y="0" type="line"/>
      <point x="172" y="189" type="line"/>
      <point x="346" y="189" type="line"/>
    </contour>
    <contour>
      <point x="466" y="0" type="line"/>
      <point x="272" y="0" type="line"/>
      <point x="430" y="460" type="line"/>
      <point x="625" y="460" type="line"/>
    </contour>
    <contour>
      <point x="430" y="273" type="line"/>
      <point x="392" y="155" type="line"/>
      <point x="272" y="154" type="line" smooth="yes"/>
      <point x="182" y="158"/>
      <point x="92" y="212"/>
      <point x="118" y="314" type="curve" smooth="yes"/>
      <point x="143" y="413"/>
      <point x="248" y="456"/>
      <point x="342" y="460" type="curve" smooth="yes"/>
      <point x="502" y="460" type="line"/>
      <point x="446" y="311" type="line"/>
      <point x="355" y="311" type="line" smooth="yes"/>
      <point x="341" y="311"/>
      <point x="301" y="310"/>
      <point x="296" y="292" type="curve" smooth="yes"/>
      <point x="292" y="279"/>
      <point x="312" y="274"/>
      <point x="319" y="274" type="curve" smooth="yes"/>
    </contour>
  </outline>
</glyph>
<glyph name="uni045D" format="2">
  <advance width="583"/>
  <unicode hex="045D"/>
  <outline>
    <contour>
      <point x="582" y="292" type="line"/>
      <point x="-34" y="-54" type="line"/>
      <point x="50" y="168" type="line"/>
      <point x="665" y="514" type="line"/>
    </contour>
    <contour>
      <point x="330" y="460" type="line"/>
      <point x="212" y="115" type="line"/>
      <point x="-34" y="-54" type="line"/>
      <point x="145" y="460" type="line"/>
    </contour>
    <contour>
      <point x="665" y="514" type="line"/>
      <point x="487" y="0" type="line"/>
      <point x="302" y="0" type="line"/>
      <point x="420" y="345" type="line"/>
    </contour>
    <contour>
      <point x="275.914" y="690" type="line"/>
      <point x="417.914" y="745" type="line"/>
      <point x="514.914" y="578" type="line"/>
      <point x="405.914" y="534" type="line"/>
    </contour>
  </outline>
</glyph>
<glyph name="uni045E" format="2">
  <advance width="536"/>
  <unicode hex="045E"/>
  <outline>
    <contour>
      <point x="662" y="459" type="line"/>
      <point x="146" y="-219" type="line"/>
      <point x="-48" y="-219" type="line"/>
      <point x="141" y="31" type="line"/>
      <point x="91" y="460" type="line"/>
      <point x="285" y="460" type="line"/>
      <point x="297" y="85" type="line"/>
      <point x="192" y="86" type="line"/>
      <point x="463" y="459" type="line"/>
    </contour>
    <contour>
      <point x="253.771" y="680.012" type="curve"/>
      <point x="360.771" y="680.012" type="line"/>
      <point x="363.771" y="659.012"/>
      <point x="362.771" y="635.012"/>
      <point x="389.771" y="631.012" type="curve" smooth="yes"/>
      <point x="418.771" y="627.012"/>
      <point x="441.771" y="660.012"/>
      <point x="456.771" y="679.012" type="curve"/>
      <point x="573.771" y="678.012" type="line"/>
      <point x="540.771" y="594.012"/>
      <point x="474.771" y="532.012"/>
      <point x="379.771" y="531.012" type="curve" smooth="yes"/>
      <point x="285.771" y="530.012"/>
      <point x="244.771" y="592.012"/>
    </contour>
  </outline>
</glyph>
<glyph name="uni1E9E" format="2">
  <advance width="874"/>
  <unicode hex="1E9E"/>
  <outline>
    <contour>
      <point x="632" y="-12" type="curve" smooth="yes"/>
      <point x="734" y="-12"/>
      <point x="820" y="43"/>
      <point x="820" y="129" type="curve" smooth="yes"/>
      <point x="820" y="241"/>
      <point x="779" y="255"/>
      <point x="779" y="336" type="curve" smooth="yes"/>
      <point x="779" y="416"/>
      <point x="894" y="472"/>
      <point x="894" y="556" type="curve" smooth="yes"/>
      <point x="894" y="638"/>
      <point x="799" y="720"/>
      <point x="615" y="720" type="curve" smooth="yes"/>
      <point x="321" y="720"/>
      <point x="204.272" y="541.603"/>
      <point x="140" y="352" type="curve" smooth="yes"/>
      <point x="20" y="-2" type="line"/>
      <point x="248" y="-2" type="line"/>
      <point x="368" y="330" type="line" smooth="yes"/>
      <point x="405.599" y="434.024"/>
      <point x="461" y="525"/>
      <point x="567" y="525" type="curve" smooth="yes"/>
      <point x="612" y="525"/>
      <point x="653" y="514"/>
      <point x="653" y="482" type="curve" smooth="yes"/>
      <point x="653" y="442"/>
      <point x="558" y="404"/>
      <point x="558" y="346" type="curve" smooth="yes"/>
      <point x="558" y="265"/>
      <point x="588" y="269"/>
      <point x="588" y="200" type="curve" smooth="yes"/>
      <point x="588" y="174"/>
      <point x="566" y="162"/>
      <point x="530" y="162" type="curve" smooth="yes"/>
      <point x="499" y="162"/>
      <point x="451" y="175"/>
      <point x="388" y="198" type="curve"/>
      <point x="350" y="22" type="line"/>
      <point x="427" y="1"/>
      <point x="548" y="-12"/>
    </contour>
  </outline>
</glyph>
<glyph name="figuredash" format="2">
  <advance width="611"/>
  <unicode hex="2012"/>
  <outline>
    <contour>
      <point x="60" y="155" type="line"/>
      <point x="118" y="320" type="line"/>
      <point x="591" y="320" type="line"/>
      <point x="533" y="155" type="line"/>
    </contour>
  </outline>
</glyph>
<glyph name="quoteleft" format="2">
  <advance width="343"/>
  <unicode hex="2018"/>
  <outline>
    <contour>
      <point x="346" y="430" type="line"/>
      <point x="150" y="431" type="line"/>
      <point x="343" y="699" type="line"/>
      <point x="488" y="699" type="line"/>
    </contour>
  </outline>
</glyph>
<glyph name="quoteright" format="2">
  <advance width="343"/>
  <unicode hex="2019"/>
  <outline>
    <contour>
      <point x="274" y="700" type="line"/>
      <point x="471" y="699" type="line"/>
      <point x="278" y="431" type="line"/>
      <point x="133" y="431" type="line"/>
    </contour>
  </outline>
</glyph>
<glyph name="quotedblright" format="2">
  <advance width="578"/>
  <unicode hex="201D"/>
  <outline>
    <contour>
      <point x="274" y="700" type="line"/>
      <point x="471" y="699" type="line"/>
      <point x="278" y="431" type="line"/>
      <point x="133" y="431" type="line"/>
    </contour>
    <contour>
      <point x="510" y="700" type="line"/>
      <point x="706" y="699" type="line"/>
      <point x="513" y="431" type="line"/>
      <point x="368" y="431" type="line"/>
    </contour>
  </outline>
</glyph>
<glyph name="quotedblbase" format="2">
  <advance width="578"/>
  <unicode hex="201E"/>
  <outline>
    <contour>
      <point x="72" y="80" type="line"/>
      <point x="269" y="79" type="line"/>
      <point x="76" y="-189" type="line"/>
      <point x="-69" y="-189" type="line"/>
    </contour>
    <contour>
      <point x="308" y="80" type="line"/>
      <point x="504" y="79" type="line"/>
      <point x="311" y="-189" type="line"/>
      <point x="166" y="-189" type="line"/>
    </contour>
  </outline>
</glyph>
<glyph name="bullet" format="2">
  <advance width="316"/>
  <unicode hex="2022"/>
  <outline>
    <contour>
      <point x="147" y="462" type="curve" smooth="yes"/>
      <point x="164" y="522"/>
      <point x="228" y="574"/>
      <point x="291" y="574" type="curve" smooth="yes"/>
      <point x="355" y="574"/>
      <point x="392" y="517"/>
      <point x="375" y="458" type="curve" smooth="yes"/>
      <point x="358" y="398"/>
      <point x="294" y="346"/>
      <point x="231" y="346" type="curve" smooth="yes"/>
      <point x="167" y="346"/>
      <point x="130" y="403"/>
    </contour>
  </outline>
</glyph>
<glyph name="uni2074" format="2">
  <advance width="424"/>
  <unicode hex="2074"/>
  <outline>
    <contour>
      <point x="60" y="350" type="line"/>
      <point x="193" y="438" type="line"/>
      <point x="369" y="439" type="line"/>
      <point x="386" y="460" type="line"/>
      <point x="514" y="460" type="line"/>
      <point x="474" y="349" type="line"/>
    </contour>
    <contour>
      <point x="220" y="396" type="line"/>
      <point x="49" y="340" type="line"/>
      <point x="419" y="699" type="line"/>
      <point x="533" y="700" type="line"/>
      <point x="388" y="280" type="line"/>
      <point x="251" y="280" type="line"/>
      <point x="282" y="370" type="line"/>
      <point x="300" y="376" type="line"/>
      <point x="351" y="514" type="line"/>
    </contour>
  </outline>
</glyph>
<glyph name="uni2076" format="2">
  <advance width="382"/>
  <unicode hex="2076"/>
  <outline>
    <contour>
      <point x="229" y="429" type="curve" smooth="yes"/>
      <point x="222" y="406"/>
      <point x="232" y="381"/>
      <point x="258" y="378" type="curve" smooth="yes"/>
      <point x="287" y="374"/>
      <point x="327" y="407"/>
      <point x="335" y="433" type="curve" smooth="yes"/>
      <point x="342" y="456"/>
      <point x="335" y="481"/>
      <point x="309" y="485" type="curve" smooth="yes"/>
      <point x="280" y="489"/>
      <point x="237" y="455"/>
    </contour>
    <contour>
      <point x="348" y="694" type="line"/>
      <point x="526" y="694" type="line"/>
      <point x="346" y="561" type="line"/>
      <point x="304" y="544" type="line"/>
      <point x="325" y="555"/>
      <point x="345" y="565"/>
      <point x="370" y="566" type="curve" smooth="yes"/>
      <point x="445" y="569"/>
      <point x="480" y="495"/>
      <point x="463" y="430" type="curve" smooth="yes"/>
      <point x="438" y="332"/>
      <point x="336" y="267"/>
      <point x="238" y="267" type="curve" smooth="yes"/>
      <point x="142" y="267"/>
      <point x="74" y="335"/>
      <point x="103" y="432" type="curve" smooth="yes"/>
      <point x="119" y="486"/>
      <point x="161" y="529"/>
      <point x="201" y="566" type="curve" smooth="yes"/>
    </contour>
  </outline>
</glyph>
<glyph name="uni2080" format="2">
  <advance width="378"/>
  <unicode hex="2080"/>
  <outline>
    <contour>
      <point x="151" y="209" type="curve" smooth="yes"/>
      <point x="141" y="184"/>
      <point x="116" y="109"/>
      <point x="161" y="103" type="curve" smooth="yes"/>
      <point x="209" y="97"/>
      <point x="248" y="176"/>
      <point x="262" y="211" type="curve" smooth="yes"/>
      <point x="272" y="236"/>
      <point x="297" y="311"/>
      <point x="252" y="317" type="curve" smooth="yes"/>
      <point x="204" y="323"/>
      <point x="165" y="244"/>
    </contour>
    <contour>
      <point x="28" y="211" type="curve" smooth="yes"/>
      <point x="60" y="318"/>
      <point x="149" y="429"/>
      <point x="270" y="429" type="curve" smooth="yes"/>
      <point x="396" y="429"/>
      <point x="415" y="308"/>
      <point x="385" y="209" type="curve" smooth="yes"/>
      <point x="352" y="101"/>
      <point x="266" y="-9"/>
      <point x="143" y="-9" type="curve" smooth="yes"/>
      <point x="19" y="-9"/>
      <point x="-2" y="113"/>
    </contour>
  </outline>
</glyph>
<glyph name="uni2089" format="2">
  <advance width="404"/>
  <unicode hex="2089"/>
  <outline>
    <contour>
      <point x="291" y="271" type="curve" smooth="yes"/>
      <point x="298" y="294"/>
      <point x="289" y="319"/>
      <point x="263" y="322" type="curve" smooth="yes"/>
      <point x="234" y="326"/>
      <point x="192" y="293"/>
      <point x="184" y="267" type="curve" smooth="yes"/>
      <point x="177" y="244"/>
      <point x="186" y="218"/>
      <point x="212" y="215" type="curve" smooth="yes"/>
      <point x="241" y="211"/>
      <point x="283" y="245"/>
    </contour>
    <contour>
      <point x="173" y="6" type="line"/>
      <point x="-6" y="6" type="line"/>
      <point x="175" y="139" type="line"/>
      <point x="217" y="156" type="line"/>
      <point x="196" y="144"/>
      <point x="175" y="134"/>
      <point x="150" y="134" type="curve" smooth="yes"/>
      <point x="75" y="134"/>
      <point x="41" y="204"/>
      <point x="58" y="270" type="curve" smooth="yes"/>
      <point x="84" y="368"/>
      <point x="185" y="433"/>
      <point x="283" y="433" type="curve" smooth="yes"/>
      <point x="379" y="433"/>
      <point x="447" y="365"/>
      <point x="418" y="268" type="curve" smooth="yes"/>
      <point x="402" y="214"/>
      <point x="359" y="171"/>
      <point x="319" y="134" type="curve" smooth="yes"/>
    </contour>
  </outline>
</glyph>
<glyph name="trademark" format="2">
  <advance width="748"/>
  <unicode hex="2122"/>
  <outline>
    <contour>
      <point x="174" y="602" type="line"/>
      <point x="208" y="700" type="line"/>
      <point x="507" y="700" type="line"/>
      <point x="472" y="602" type="line"/>
      <point x="379" y="602" type="line"/>
      <point x="291" y="350" type="line"/>
      <point x="181" y="350" type="line"/>
      <point x="269" y="602" type="line"/>
    </contour>
    <contour>
      <point x="736" y="598" type="line"/>
      <point x="863" y="731" type="line"/>
      <point x="793" y="350" type="line"/>
      <point x="680" y="350" type="line"/>
    </contour>
    <contour>
      <point x="562" y="720" type="line"/>
      <point x="599" y="576" type="line"/>
      <point x="492" y="351" type="line"/>
      <point x="372" y="351" type="line"/>
    </contour>
    <contour>
      <point x="869" y="734" type="line"/>
      <point x="812" y="576" type="line"/>
      <point x="602" y="379" type="line"/>
      <point x="519" y="597" type="line"/>
      <point x="562" y="716" type="line"/>
      <point x="639" y="532" type="line"/>
    </contour>
  </outline>
</glyph>
<glyph name="uni2152" format="2">
  <advance width="1213"/>
  <unicode hex="2152"/>
  <outline>
    <contour>
      <point x="757" y="699" type="line"/>
      <point x="922" y="699" type="line"/>
      <point x="193" y="0" type="line"/>
      <point x="28" y="0" type="line"/>
    </contour>
    <contour>
      <point x="147" y="546" type="line"/>
      <point x="187" y="661" type="line"/>
      <point x="433" y="706" type="line"/>
      <point x="284" y="274" type="line"/>
      <point x="158" y="274" type="line"/>
      <point x="261" y="570" type="line"/>
    </contour>
    <contour>
      <point x="588" y="273" type="line"/>
      <point x="629" y="388" type="line"/>
      <point x="874" y="433" type="line"/>
      <point x="725" y="1" type="line"/>
      <point x="599" y="1" type="line"/>
      <point x="702" y="297" type="line"/>
    </contour>
    <contour>
      <point x="968" y="209" type="curve" smooth="yes"/>
      <point x="958" y="184"/>
      <point x="933" y="109"/>
      <point x="978" y="103" type="curve" smooth="yes"/>
      <point x="1026" y="97"/>
      <point x="1065" y="176"/>
      <point x="1079" y="211" type="curve" smooth="yes"/>
      <point x="1089" y="236"/>
      <point x="1114" y="311"/>
      <point x="1069" y="317" type="curve" smooth="yes"/>
      <point x="1021" y="323"/>
      <point x="982" y="244"/>
    </contour>
    <contour>
      <point x="845" y="211" type="curve" smooth="yes"/>
      <point x="877" y="318"/>
      <point x="965" y="429"/>
      <point x="1086" y="429" type="curve" smooth="yes"/>
      <point x="1212" y="429"/>
      <point x="1231" y="308"/>
      <point x="1201" y="209" type="curve" smooth="yes"/>
      <point x="1168" y="101"/>
      <point x="1083" y="-9"/>
      <point x="960" y="-9" type="curve" smooth="yes"/>
      <point x="836" y="-9"/>
      <point x="815" y="113"/>
    </contour>
  </outline>
</glyph>
<glyph name="uni2158" format="2">
  <advance width="1040"/>
  <unicode hex="2158"/>
  <outline>
    <contour>
      <point x="890" y="698" type="line"/>
      <point x="1055" y="698" type="line"/>
      <point x="326" y="0" type="line"/>
      <point x="161" y="0" type="line"/>
    </contour>
    <contour>
      <point x="69" y="350" type="line"/>
      <point x="202" y="438" type="line"/>
      <point x="378" y="439" type="line"/>
      <point x="396" y="460" type="line"/>
      <point x="523" y="460" type="line"/>
      <point x="483" y="349" type="line"/>
    </contour>
    <contour>
      <point x="229" y="396" type="line"/>
      <point x="59" y="340" type="line"/>
      <point x="428" y="699" type="line"/>
      <point x="543" y="700" type="line"/>
      <point x="397" y="280" type="line"/>
      <point x="260" y="280" type="line"/>
      <point x="291" y="370" type="line"/>
      <point x="310" y="376" type="line"/>
      <point x="360" y="514" type="line"/>
    </contour>
    <contour>
      <point x="1006" y="128" type="curve" smooth="yes"/>
      <point x="980" y="38"/>
      <point x="881" y="-9"/>
      <point x="794" y="-11" type="curve" smooth="yes"/>
      <point x="735" y="-13"/>
      <point x="679" y="4"/>
      <point x="625" y="25" type="curve"/>
      <point x="693" y="137" type="line"/>
      <point x="721" y="122"/>
      <point x="748" y="108"/>
      <point x="781" y="108" type="curve" smooth="yes"/>
      <point x="806" y="108"/>
      <point x="868" y="116"/>
      <point x="873" y="150" type="curve" smooth="yes"/>
      <point x="877" y="177"/>
      <point x="842" y="182"/>
      <point x="824" y="183" type="curve" smooth="yes"/>
      <point x="780" y="186"/>
      <point x="736" y="175"/>
      <point x="693" y="166" type="curve"/>
      <point x="790" y="220" type="line" smooth="yes"/>
      <point x="829" y="242"/>
      <point x="870" y="266"/>
      <point x="917" y="264" type="curve" smooth="yes"/>
      <point x="991" y="260"/>
      <point x="1025" y="196"/>
    </contour>
    <contour>
      <point x="895" y="302" type="line"/>
      <point x="825" y="209" type="line"/>
      <point x="680" y="156" type="line"/>
      <point x="830" y="416" type="line"/>
      <point x="1094" y="417" type="line"/>
      <point x="1053" y="303" type="line"/>
    </contour>
  </outline>
</glyph>
<glyph name="uni215A" format="2">
  <advance width="918"/>
  <unicode hex="215A"/>
  <outline>
    <contour>
      <point x="834" y="699" type="line"/>
      <point x="999" y="699" type="line"/>
      <point x="270" y="0" type="line"/>
      <point x="105" y="0" type="line"/>
    </contour>
    <contour>
      <point x="457" y="409" type="curve" smooth="yes"/>
      <point x="431" y="319"/>
      <point x="333" y="272"/>
      <point x="246" y="270" type="curve" smooth="yes"/>
      <point x="187" y="268"/>
      <point x="131" y="285"/>
      <point x="77" y="306" type="curve"/>
      <point x="144" y="418" type="line"/>
      <point x="172" y="403"/>
      <point x="200" y="389"/>
      <point x="233" y="389" type="curve" smooth="yes"/>
      <point x="258" y="389"/>
      <point x="320" y="397"/>
      <point x="325" y="431" type="curve" smooth="yes"/>
      <point x="329" y="458"/>
      <point x="294" y="463"/>
      <point x="276" y="464" type="curve" smooth="yes"/>
      <point x="232" y="467"/>
      <point x="187" y="456"/>
      <point x="144" y="447" type="curve"/>
      <point x="242" y="501" type="line" smooth="yes"/>
      <point x="281" y="523"/>
      <point x="321" y="547"/>
      <point x="368" y="545" type="curve" smooth="yes"/>
      <point x="442" y="541"/>
      <point x="476" y="477"/>
    </contour>
    <contour>
      <point x="346" y="583" type="line"/>
      <point x="276" y="490" type="line"/>
      <point x="131" y="437" type="line"/>
      <point x="281" y="697" type="line"/>
      <point x="545" y="698" type="line"/>
      <point x="504" y="584" type="line"/>
    </contour>
    <contour>
      <point x="657" y="149" type="curve" smooth="yes"/>
      <point x="650" y="126"/>
      <point x="659" y="101"/>
      <point x="685" y="98" type="curve" smooth="yes"/>
      <point x="714" y="94"/>
      <point x="755" y="127"/>
      <point x="763" y="153" type="curve" smooth="yes"/>
      <point x="770" y="176"/>
      <point x="762" y="201"/>
      <point x="736" y="205" type="curve" smooth="yes"/>
      <point x="707" y="209"/>
      <point x="665" y="175"/>
    </contour>
    <contour>
      <point x="775" y="414" type="line"/>
      <point x="953" y="414" type="line"/>
      <point x="774" y="281" type="line"/>
      <point x="732" y="264" type="line"/>
      <point x="753" y="275"/>
      <point x="773" y="285"/>
      <point x="798" y="286" type="curve" smooth="yes"/>
      <point x="873" y="289"/>
      <point x="907" y="215"/>
      <point x="890" y="150" type="curve" smooth="yes"/>
      <point x="865" y="52"/>
      <point x="764" y="-13"/>
      <point x="666" y="-13" type="curve" smooth="yes"/>
      <point x="570" y="-13"/>
      <point x="502" y="55"/>
      <point x="531" y="152" type="curve" smooth="yes"/>
      <point x="547" y="206"/>
      <point x="589" y="249"/>
      <point x="629" y="286" type="curve" smooth="yes"/>
    </contour>
  </outline>
</glyph>
<glyph name="partialdiff" format="2">
  <advance width="657"/>
  <unicode hex="2202"/>
  <outline>
    <contour>
      <point x="304" y="-20" type="curve" smooth="yes"/>
      <point x="174" y="-20"/>
      <point x="60" y="54"/>
      <point x="60" y="185" type="curve" smooth="yes"/>
      <point x="60" y="343"/>
      <point x="184" y="483"/>
      <point x="343" y="483" type="curve" smooth="yes"/>
      <point x="433" y="483"/>
      <point x="495" y="428"/>
      <point x="557" y="318" type="curve"/>
      <point x="516" y="320" type="line"/>
      <point x="482" y="512"/>
      <point x="407" y="595"/>
      <point x="258" y="695" type="curve"/>
      <point x="409" y="782" type="line"/>
      <point x="627" y="597"/>
      <point x="678" y="499"/>
      <point x="678" y="305" type="curve" smooth="yes"/>
      <point x="678" y="128"/>
      <point x="516" y="-20"/>
    </contour>
    <contour>
      <point x="338" y="155" type="curve" smooth="yes"/>
      <point x="404" y="155"/>
      <point x="455" y="210"/>
      <point x="455" y="260" type="curve" smooth="yes"/>
      <point x="455" y="290"/>
      <point x="433" y="326"/>
      <point x="388" y="326" type="curve" smooth="yes"/>
      <point x="323" y="326"/>
      <point x="271" y="270"/>
      <point x="271" y="220" type="curve" smooth="yes"/>
      <point x="271" y="190"/>
      <point x="292" y="155"/>
    </contour>
  </outline>
</glyph>
<glyph name="uni2215" format="2">
  <advance width="625"/>
  <unicode hex="2215"/>
  <outline>
    <contour>
      <point x="614" y="699" type="line"/>
      <point x="805" y="699" type="line"/>
      <point x="100" y="-149" type="line"/>
      <point x="-100" y="-149" type="line"/>
    </contour>
  </outline>
</glyph>
<glyph name="radical" format="2">
  <advance width="600"/>
  <unicode hex="221A"/>
  <outline>
    <contour>
      <point x="91" y="-194" type="line"/>
      <point x="608" y="658" type="line"/>
      <point x="469" y="551" type="line"/>
      <point x="631" y="551" type="line"/>
      <point x="681" y="700" type="line"/>
      <point x="482" y="700" type="line"/>
      <point x="127" y="86" type="line"/>
      <point x="184" y="32" type="line"/>
      <point x="178" y="318" type="line"/>
      <point x="5" y="254" type="line"/>
      <point x="5" y="124" type="line"/>
      <point x="149" y="165" type="line"/>
      <point x="76" y="204" type="line"/>
    </contour>
  </outline>
</glyph>
<glyph name="infinity" format="2">
  <advance width="840"/>
  <unicode hex="221E"/>
  <outline>
    <contour>
      <point x="136" y="18" type="curve" smooth="yes"/>
      <point x="30" y="18"/>
      <point x="-29" y="116"/>
      <point x="9" y="230" type="curve" smooth="yes"/>
      <point x="47" y="344"/>
      <point x="172" y="442"/>
      <point x="278" y="442" type="curve" smooth="yes"/>
      <point x="345" y="442"/>
      <point x="396" y="402"/>
      <point x="437" y="321" type="curve"/>
      <point x="531" y="401"/>
      <point x="611" y="442"/>
      <point x="678" y="442" type="curve" smooth="yes"/>
      <point x="784" y="442"/>
      <point x="843" y="344"/>
      <point x="805" y="230" type="curve" smooth="yes"/>
      <point x="767" y="116"/>
      <point x="642" y="18"/>
      <point x="536" y="18" type="curve" smooth="yes"/>
      <point x="468" y="18"/>
      <point x="417" y="58"/>
      <point x="376" y="138" type="curve"/>
      <point x="281" y="58"/>
      <point x="203" y="18"/>
    </contour>
    <contour>
      <point x="208" y="155" type="curve" smooth="yes"/>
      <point x="240" y="155"/>
      <point x="281" y="182"/>
      <point x="327" y="230" type="curve"/>
      <point x="313" y="278"/>
      <point x="290" y="304"/>
      <point x="258" y="304" type="curve" smooth="yes"/>
      <point x="222" y="304"/>
      <point x="176" y="269"/>
      <point x="163" y="230" type="curve" smooth="yes"/>
      <point x="150" y="191"/>
      <point x="172" y="155"/>
    </contour>
    <contour>
      <point x="557" y="155" type="curve" smooth="yes"/>
      <point x="593" y="155"/>
      <point x="638" y="191"/>
      <point x="651" y="230" type="curve" smooth="yes"/>
      <point x="664" y="270"/>
      <point x="643" y="304"/>
      <point x="607" y="304" type="curve" smooth="yes"/>
      <point x="575" y="304"/>
      <point x="533" y="278"/>
      <point x="487" y="230" type="curve"/>
      <point x="501" y="182"/>
      <point x="525" y="155"/>
    </contour>
  </outline>
</glyph>
<glyph name="approxequal" format="2">
  <advance width="600"/>
  <unicode hex="2248"/>
  <outline>
    <contour>
      <point x="422" y="292" type="curve" smooth="yes"/>
      <point x="524" y="292"/>
      <point x="620" y="382"/>
      <point x="629" y="488" type="curve"/>
      <point x="484" y="493" type="line"/>
      <point x="487" y="448"/>
      <point x="475" y="422"/>
      <point x="431" y="422" type="curve" smooth="yes"/>
      <point x="417" y="422"/>
      <point x="387" y="433"/>
      <point x="353" y="458" type="curve" smooth="yes"/>
      <point x="306" y="494"/>
      <point x="275" y="507"/>
      <point x="234" y="507" type="curve" smooth="yes"/>
      <point x="119" y="507"/>
      <point x="36" y="412"/>
      <point x="32" y="311" type="curve"/>
      <point x="177" y="306" type="line"/>
      <point x="175" y="359"/>
      <point x="189" y="383"/>
      <point x="221" y="383" type="curve" smooth="yes"/>
      <point x="241" y="383"/>
      <point x="268" y="369"/>
      <point x="299" y="343" type="curve" smooth="yes"/>
      <point x="340" y="309"/>
      <point x="379" y="292"/>
    </contour>
    <contour>
      <point x="338" y="42" type="curve" smooth="yes"/>
      <point x="440" y="42"/>
      <point x="537" y="132"/>
      <point x="546" y="238" type="curve"/>
      <point x="400" y="243" type="line"/>
      <point x="403" y="198"/>
      <point x="392" y="172"/>
      <point x="348" y="172" type="curve" smooth="yes"/>
      <point x="334" y="172"/>
      <point x="304" y="183"/>
      <point x="270" y="208" type="curve" smooth="yes"/>
      <point x="223" y="244"/>
      <point x="191" y="257"/>
      <point x="150" y="257" type="curve" smooth="yes"/>
      <point x="35" y="257"/>
      <point x="-48" y="162"/>
      <point x="-52" y="61" type="curve"/>
      <point x="94" y="56" type="line"/>
      <point x="92" y="109"/>
      <point x="106" y="133"/>
      <point x="138" y="133" type="curve" smooth="yes"/>
      <point x="158" y="133"/>
      <point x="184" y="119"/>
      <point x="215" y="93" type="curve" smooth="yes"/>
      <point x="256" y="59"/>
      <point x="295" y="42"/>
    </contour>
  </outline>
</glyph>
<glyph name="lessequal" format="2">
  <advance width="600"/>
  <unicode hex="2264"/>
  <outline>
    <contour>
      <point x="-22" y="10" type="line"/>
      <point x="493" y="10" type="line"/>
      <point x="547" y="170" type="line"/>
      <point x="32" y="170" type="line"/>
    </contour>
    <contour>
      <point x="549" y="190" type="line"/>
      <point x="612" y="380" type="line"/>
      <point x="399" y="471" type="line"/>
      <point x="671" y="555" type="line"/>
      <point x="734" y="745" type="line"/>
      <point x="154" y="535" type="line"/>
      <point x="109" y="400" type="line"/>
    </contour>
  </outline>
</glyph>
<glyph name="lozenge" format="2">
  <advance width="600"/>
  <unicode hex="25CA"/>
  <outline>
    <contour>
      <point x="221" y="15" type="line"/>
      <point x="529" y="356" type="line"/>
      <point x="449" y="696" type="line"/>
      <point x="129" y="356" type="line"/>
    </contour>
    <contour>
      <point x="306" y="283" type="line"/>
      <point x="286" y="356" type="line"/>
      <point x="354" y="428" type="line"/>
      <point x="372" y="356" type="line"/>
    </contour>
  </outline>
</glyph>
<glyph name="adieresis.alt" format="2">
  <advance width="606"/>
  <outline>
    <contour>
      <point x="476" y="460" type="line"/>
      <point x="667" y="460" type="line"/>
      <point x="508" y="0" type="line"/>
      <point x="318" y="0" type="line"/>
    </contour>
    <contour>
      <point x="49" y="231" type="curve" smooth="yes"/>
      <point x="84" y="348"/>
      <point x="192" y="470"/>
      <point x="323" y="470" type="curve" smooth="yes"/>
      <point x="455" y="470"/>
      <point x="475" y="332"/>
      <point x="444" y="229" type="curve" smooth="yes"/>
      <point x="409" y="114"/>
      <point x="313" y="-9"/>
      <point x="183" y="-9" type="curve" smooth="yes"/>
      <point x="51" y="-9"/>
      <point x="17" y="124"/>
    </contour>
    <contour>
      <point x="247" y="229" type="curve" smooth="yes"/>
      <point x="234" y="195"/>
      <point x="239" y="144"/>
      <point x="284" y="141" type="curve" smooth="yes"/>
      <point x="332" y="138"/>
      <point x="381" y="190"/>
      <point x="397" y="231" type="curve" smooth="yes"/>
      <point x="410" y="265"/>
      <point x="408" y="316"/>
      <point x="363" y="319" type="curve" smooth="yes"/>
      <point x="315" y="322"/>
      <point x="263" y="270"/>
    </contour>
    <contour>
      <point x="487" y="632" type="curve" smooth="yes"/>
      <point x="502" y="685"/>
      <point x="562" y="726"/>
      <point x="616" y="726" type="curve" smooth="yes"/>
      <point x="671" y="726"/>
      <point x="710" y="681"/>
      <point x="695" y="626" type="curve" smooth="yes"/>
      <point x="680" y="573"/>
      <point x="621" y="532"/>
      <point x="567" y="532" type="curve" smooth="yes"/>
      <point x="512" y="532"/>
      <point x="472" y="577"/>
    </contour>
    <contour>
      <point x="233" y="632" type="curve" smooth="yes"/>
      <point x="248" y="685"/>
      <point x="308" y="726"/>
      <point x="362" y="726" type="curve" smooth="yes"/>
      <point x="417" y="726"/>
      <point x="456" y="681"/>
      <point x="441" y="626" type="curve" smooth="yes"/>
      <point x="426" y="573"/>
      <point x="366" y="532"/>
      <point x="312" y="532" type="curve" smooth="yes"/>
      <point x="257" y="532"/>
      <point x="218" y="577"/>
    </contour>
  </outline>
</glyph>
